<svg  fill="none" stroke="#020d47" stroke-width="2" viewBox="-2 1 29 25" xmlns="http://www.w3.org/2000/svg">
  <path d="M6.75 4.875a1.875 1.875 0 1 0-3.75 0 1.875 1.875 0 0 0 3.75 0Z"></path>
  <path d="M13.875 4.875a1.875 1.875 0 1 0-3.75 0 1.875 1.875 0 0 0 3.75 0Z"></path>
  <path d="M21 4.875a1.875 1.875 0 1 0-3.75 0 1.875 1.875 0 0 0 3.75 0Z"></path>
  <path d="M6.75 12A1.875 1.875 0 1 0 3 12a1.875 1.875 0 0 0 3.75 0Z"></path>
  <path d="M13.875 12a1.875 1.875 0 1 0-3.75 0 1.875 1.875 0 0 0 3.75 0Z"></path>
  <path d="M21 12a1.875 1.875 0 1 0-3.75 0A1.875 1.875 0 0 0 21 12Z"></path>
  <path d="M6.75 19.125a1.875 1.875 0 1 0-3.75 0 1.875 1.875 0 0 0 3.75 0Z"></path>
  <path d="M13.875 19.125a1.875 1.875 0 1 0-3.75 0 1.875 1.875 0 0 0 3.75 0Z"></path>
  <path d="M21 19.125a1.875 1.875 0 1 0-3.75 0 1.875 1.875 0 0 0 3.75 0Z"></path>
</svg>