<svg xmlns="http://www.w3.org/2000/svg" xmlns:xlink="http://www.w3.org/1999/xlink" width="16" height="14" viewBox="0 0 22.5 24.5">
    <defs>
        <style>.a{fill:#020d47;}.b{clip-path:url(#a);}</style>
        <clipPath id="a">
            <path class="a" d="M112.5,178h21.016v13.3H112.5Zm0,0" transform="translate(-112.5 -178)" />
        </clipPath>
    </defs>
    <g transform="translate(-112.5 -112.802)">
        <g class="b" transform="translate(112.5 124.004)">
            <path class="a" d="M132.7,180.83l-.616.8-1.014,1.324-.041.053-.823,1.074-1.414,1.845a.51.51,0,0,1-.4.2h-5.762a2.555,2.555,0,0,0-1.859.817l-.055.058-.04.041-3.185-3.372,0,0c.023-.047.047-.094.072-.141l.025-.044c.018-.034.038-.067.058-.1l.026-.044c.025-.042.051-.082.077-.122l0-.006.005-.008c.03-.044.061-.088.092-.131l.029-.039c.023-.031.047-.061.071-.092l.032-.04c.028-.035.058-.07.088-.1l.016-.019c.035-.04.072-.079.108-.117l.031-.032.085-.084.036-.034c.032-.031.065-.06.1-.089l.021-.019c.041-.035.082-.069.124-.1l.031-.024c.033-.025.066-.051.1-.075l.038-.027c.036-.025.072-.05.109-.074l.024-.016q.068-.045.138-.086l.027-.016.115-.065.038-.021.12-.06.025-.012q.074-.035.15-.067l0,0,.054-.021.072-.029.1-.037.048-.016.074-.024.051-.015.071-.021.052-.014.072-.017.052-.012.073-.016.052-.01.075-.013.05-.008.021,0,.054-.007.054-.006.076-.007.053,0,.083,0,.047,0c.04,0,.081,0,.121,0h.009a3.456,3.456,0,0,1,1.675.434q.064.035.129.065l.005,0h0a2.309,2.309,0,0,0,.277.106,2.49,2.49,0,0,0,.731.107h3.7c.019,0,.039,0,.058,0h.016l.058.009h0a.544.544,0,0,1,.055.014l.015,0a.473.473,0,0,1,.055.019h0l.051.023.013.007c.018.009.035.019.051.029l0,0,.046.031.012.009.045.037,0,0c.013.012.026.025.039.038l.011.012c.013.014.025.028.037.044l.005.006c.006.01.014.019.021.03l.009.014.009.014c.011.017.021.034.029.051l0,0c.009.017.016.034.023.052a.144.144,0,0,1,.005.014c.008.019.015.039.021.059s.011.041.015.062c0,0,0,.009,0,.014,0,.021.006.043.009.065a.833.833,0,0,1,0,.147.763.763,0,0,1-.206.458.685.685,0,0,1-.5.216h-3.6a.435.435,0,0,0-.286.109.484.484,0,0,0-.158.291.551.551,0,0,0-.006.076.483.483,0,0,0,0,.052c0,.006,0,.011,0,.016s0,.024.005.035,0,.013,0,.019.005.021.009.031l.006.018c0,.01.008.019.012.029l.008.017.016.029.008.014a.355.355,0,0,0,.021.032l.006.008a.4.4,0,0,0,.032.038h0a.381.381,0,0,0,.034.032l.022.017.01.007.033.022.012.006.025.013.015.006.024.009.016.006.025.007.016,0,.028,0,.014,0,.041,0h3.571c.053,0,.106,0,.159-.007a1.516,1.516,0,0,0,.333-.065c.048-.016.095-.034.14-.053l.014-.006.054-.025.019-.009.046-.024.021-.012.041-.024.023-.014.038-.024.023-.017.035-.024.024-.018.032-.025.024-.019.03-.026.024-.021.028-.026.023-.024.027-.026.022-.025.025-.027.008-.009.014-.016.023-.028.021-.027.022-.028.02-.028.02-.029.019-.03.018-.029.019-.03.017-.03.017-.031.016-.03.016-.032.015-.031.015-.033c0-.011.009-.021.013-.031l.013-.033.012-.031.012-.035.011-.032c0-.012.007-.024.011-.035l.009-.032.01-.036c0-.011.005-.021.008-.032s.005-.025.008-.037l.007-.032c0-.012,0-.025.006-.037s0-.022.006-.033l.005-.037c0-.011,0-.022,0-.033s0-.024,0-.037,0-.022,0-.033,0-.025,0-.038,0-.022,0-.034,0-.024,0-.037V182.9c0-.011,0-.022,0-.034l0-.037c0-.017,0-.034,0-.052,0-.033-.007-.065-.012-.1-.008-.053-.019-.106-.032-.159l1.251-1.279.8-.819.632-.646a.7.7,0,0,1,.218-.157h0l.039-.017.04-.014a.68.68,0,0,1,.2-.031h.017a.611.611,0,0,1,.117.013l.011,0a.685.685,0,0,1,.272.129.7.7,0,0,1,.082.073.78.78,0,0,1,0,1.057Zm-12.373,7.61a.678.678,0,0,1-.019.075.522.522,0,0,1-.028.073.655.655,0,0,1-.066.114.706.706,0,0,1-.051.062l-1.784,1.89-4.433-4.693,1.784-1.89a.6.6,0,0,1,.3-.172l.017,0,.014,0a.553.553,0,0,1,.1-.01.6.6,0,0,1,.428.188l3.577,3.787a.641.641,0,0,1,.121.183.524.524,0,0,1,.031.087.682.682,0,0,1,.025.182A.65.65,0,0,1,120.328,188.44Zm13.007-9.343a1.544,1.544,0,0,0-1.132-.495c-.039,0-.078,0-.117,0a1.547,1.547,0,0,0-.96.434l-.052.053,0,0-1.441,1.474-1.092,1.117a1.606,1.606,0,0,0-1.1-.45h-3.712a1.526,1.526,0,0,1-.562-.1,1.3,1.3,0,0,1-.154-.071,4.3,4.3,0,0,0-2.087-.54,4.435,4.435,0,0,0-1.06.129,4.607,4.607,0,0,0-.843.3c-.085.039-.168.081-.251.126a4.855,4.855,0,0,0-1.014.729c-.1.1-.2.2-.3.3a4.9,4.9,0,0,0-.677.965,1.412,1.412,0,0,0-.614-.141,1.451,1.451,0,0,0-1.063.467l-2.006,2.123a.649.649,0,0,0,0,.879l4.874,5.162a.564.564,0,0,0,.83,0l2.005-2.123a1.658,1.658,0,0,0,.38-1.577l.131-.137a1.989,1.989,0,0,1,1.451-.636h5.63a1.386,1.386,0,0,0,1.1-.557l1.874-2.445.721-.941,1.289-1.682a1.772,1.772,0,0,0-.04-2.366" transform="translate(-112.855 -178.506)" />
        </g>
        <path class="a" d="M131.959,219.1a.545.545,0,1,0,.514.545.53.53,0,0,0-.514-.545" transform="translate(-16.091 -88.554)" />
        <path class="a" d="M136.671,147.318h-3.479a1.646,1.646,0,0,1-1.61-1.676,3.326,3.326,0,0,1,3.238-3.4h2.131a3.144,3.144,0,0,1,2.093.81,1.1,1.1,0,0,1-.092,1.713,3.319,3.319,0,0,0-.489.426,3.415,3.415,0,0,0-.791,1.368A1.049,1.049,0,0,1,136.671,147.318Zm-1.851-4.076a2.326,2.326,0,0,0-2.238,2.4.646.646,0,0,0,.61.676h3.479c.012,0,.035-.015.045-.049a4.467,4.467,0,0,1,1.021-1.764,4.324,4.324,0,0,1,.638-.555.093.093,0,0,0,.034-.07.1.1,0,0,0-.03-.081,2.146,2.146,0,0,0-1.427-.556Z" transform="translate(-16.632 -24.348)" />
        <path class="a" d="M137.8,147.318H134.32a1.049,1.049,0,0,1-1-.758,3.415,3.415,0,0,0-.791-1.368,3.321,3.321,0,0,0-.49-.427,1.1,1.1,0,0,1-.091-1.712,3.144,3.144,0,0,1,2.093-.81h2.131a3.326,3.326,0,0,1,3.238,3.4A1.646,1.646,0,0,1,137.8,147.318Zm-3.759-4.076a2.146,2.146,0,0,0-1.427.556.1.1,0,0,0-.03.081.093.093,0,0,0,.034.07,4.325,4.325,0,0,1,.638.556,4.406,4.406,0,0,1,1.021,1.765c.01.033.032.048.045.048H137.8a.646.646,0,0,0,.611-.676,2.326,2.326,0,0,0-2.238-2.4Z" transform="translate(-4.409 -24.348)" />
        <path class="a" d="M176.134,157.841h-6.073a1.792,1.792,0,0,1-1.752-1.826,3.686,3.686,0,0,1,3.587-3.769h2.4a3.685,3.685,0,0,1,3.587,3.769A1.792,1.792,0,0,1,176.134,157.841Zm-4.238-4.595a2.686,2.686,0,0,0-2.587,2.769.793.793,0,0,0,.752.826h6.073a.792.792,0,0,0,.752-.826,2.685,2.685,0,0,0-2.587-2.769Z" transform="translate(-47.826 -32.76)" />
        <path class="a" d="M184.882,125.289a2.831,2.831,0,1,1,2.7-2.828A2.768,2.768,0,0,1,184.882,125.289Zm0-4.656a1.833,1.833,0,1,0,1.7,1.828A1.769,1.769,0,0,0,184.882,120.633Z" transform="translate(-59.611 -5.337)" />
        <path class="a" d="M184.882,125.289a2.831,2.831,0,1,1,2.7-2.828A2.768,2.768,0,0,1,184.882,125.289Zm0-4.656a1.833,1.833,0,1,0,1.7,1.828A1.769,1.769,0,0,0,184.882,120.633Z" transform="translate(-54.394 -6.831)" />
        <path class="a" d="M184.882,125.289a2.831,2.831,0,1,1,2.7-2.828A2.768,2.768,0,0,1,184.882,125.289Zm0-4.656a1.833,1.833,0,1,0,1.7,1.828A1.769,1.769,0,0,0,184.882,120.633Z" transform="translate(-65.677 -6.831)" />
    </g>
</svg>