<svg xmlns="http://www.w3.org/2000/svg" xmlns:xlink="http://www.w3.org/1999/xlink" width="18" height="20" viewBox="0 0 22.117 18.747">
    <defs>
        <style>.a{fill:#020d47;}.b{fill:#100f0d;}.c{clip-path:url(#a);}</style>
        <clipPath id="a">
            <path class="a" d="M112.5,129.563h22.117V148.31H112.5Zm0,0" transform="translate(-112.5 -129.563)" />
        </clipPath>
    </defs>
    <g transform="translate(-112.5 -129.563)">
        <path class="b" d="M156.476,157.655l2.266-2.486c-.039-.071-.081-.138-.124-.2l-2.321,2.546.179.144" transform="translate(-37.339 -21.306)" />
        <path class="b" d="M153.882,155.24l2.374-2.607c-.047-.062-.095-.123-.143-.181L153.7,155.1l.179.144" transform="translate(-35.128 -19.199)" />
        <path class="b" d="M152.477,150.7l2.054-2.254c-.061-.047-.121-.094-.184-.137l-1.869,2.05v.341" transform="translate(-34.083 -15.726)" />
        <path class="b" d="M152.477,148.6l1.649-1.807c-.067-.041-.136-.08-.206-.116l-1.443,1.586v.338" transform="translate(-34.083 -14.357)" />
        <path class="b" d="M152.477,146.81l1.2-1.312c-.074-.033-.151-.06-.23-.089l-.966,1.06v.34" transform="translate(-34.083 -13.291)" />
        <path class="b" d="M152.477,145.378l.687-.754c-.086-.021-.173-.038-.261-.054l-.426.467v.34" transform="translate(-34.083 -12.587)" />
        <path class="b" d="M152.477,153.034l2.415-2.648c-.055-.056-.108-.11-.163-.164l-2.252,2.471v.341" transform="translate(-34.083 -17.328)" />
        <path class="b" d="M152.583,144.305c-.035,0-.071,0-.106,0v.123l.106-.119" transform="translate(-34.083 -12.361)" />
        <path class="b" d="M159.089,160.314,161.2,158c-.032-.078-.065-.153-.1-.229l-2.189,2.4.179.142" transform="translate(-39.567 -23.658)" />
        <path class="b" d="M164.3,166.532l1.632-1.788c-.012-.1-.026-.2-.043-.3l-1.767,1.941.179.142" transform="translate(-44.006 -29.26)" />
        <path class="b" d="M161.683,163.256l1.9-2.088c-.023-.088-.047-.174-.074-.258l-2.009,2.2.179.142" transform="translate(-41.779 -26.292)" />
        <path class="b" d="M169.5,174.612l.756-.829a4,4,0,0,0,.089-.435l-1.023,1.123.179.142" transform="translate(-48.446 -36.724)" />
        <path class="b" d="M166.906,170.257l1.268-1.392c0-.071.006-.14.006-.214,0-.043,0-.086,0-.129l-1.449,1.592.179.142" transform="translate(-46.232 -32.677)" />
        <path class="b" d="M172.044,180.343a4.1,4.1,0,0,0,.231-.464l-.341.375.11.089" transform="translate(-50.671 -42.202)" />
        <g class="c" transform="translate(112.5 129.563)">
            <path class="a" d="M113.743,130.447a.784.784,0,0,0-.747.816v15.9a.786.786,0,0,0,.747.819h19.632a.787.787,0,0,0,.744-.819v-15.9a.785.785,0,0,0-.744-.816Zm19.632,18.084H113.743a1.309,1.309,0,0,1-1.243-1.364v-15.9a1.308,1.308,0,0,1,1.243-1.361h19.632a1.308,1.308,0,0,1,1.241,1.361v15.9a1.309,1.309,0,0,1-1.241,1.364" transform="translate(-112.5 -129.847)" />
        </g>
        <path class="a" d="M198.379,163.168h.953v3.426h-.953v-3.426" transform="translate(-73.217 -28.186)" />
        <path class="a" d="M208.406,164.945h.954v3.139h-.954v-3.139" transform="translate(-81.765 -29.676)" />
        <path class="a" d="M218.449,168.484h.952v2.568h-.952v-2.568" transform="translate(-90.327 -32.644)" />
        <path class="a" d="M228.477,159.625h.952v4h-.952v-4" transform="translate(-98.877 -25.214)" />
        <path class="a" d="M238.516,159.625h.953v4h-.953v-4" transform="translate(-107.436 -25.214)" />
        <path class="a" d="M129.934,204.236h13.3l.015-5.279-5.007,2.7-1.822-1.211-3.287,1.639-5.325.515-2.1,1.635h4.223" transform="translate(-11.263 -58.203)" />
        <path class="a" d="M130.258,152.3a4.065,4.065,0,0,1-.138-8.079v4h0l3.077,2.469a3.579,3.579,0,0,1-2.941,1.611" transform="translate(-11.999 -12.296)" />
    </g>
</svg>