<svg xmlns="http://www.w3.org/2000/svg" xmlns:xlink="http://www.w3.org/1999/xlink" width="500" zoomAndPan="magnify"
    viewBox="0 0 375 374.999991" height="500" preserveAspectRatio="xMidYMid meet" version="1.0">
    <defs>
        <clipPath id="51469752db">
            <path d="M 4 4 L 371.941406 4 L 371.941406 371.941406 L 4 371.941406 Z M 4 4 " clip-rule="nonzero" />
        </clipPath>
    </defs>
    <g clip-path="url(#51469752db)">
        <path fill="#20c6fe"
            d="M 166.742188 225.050781 L 75.429688 133.738281 C 72.710938 131.015625 68.519531 130.355469 64.988281 131.898438 C 46.757812 139.839844 25.363281 138.074219 8.597656 126.679688 C 3.746094 123.371094 3.085938 116.53125 7.203125 112.34375 L 59.84375 59.703125 L 112.410156 7.058594 C 116.527344 2.941406 123.4375 3.605469 126.746094 8.457031 C 138.144531 25.292969 139.832031 46.613281 131.96875 64.847656 C 130.421875 68.449219 131.085938 72.566406 133.804688 75.289062 L 225.117188 166.671875 C 228.425781 169.980469 233.71875 170.351562 237.320312 167.410156 C 263.789062 146.089844 301.503906 145.648438 328.488281 165.9375 C 332.972656 169.320312 333.339844 175.9375 329.371094 179.832031 L 262.90625 246.296875 L 340.839844 328.566406 L 372.011719 371.941406 L 328.78125 340.769531 L 246.511719 262.839844 L 180.050781 329.300781 C 176.078125 333.269531 169.460938 332.902344 166.152344 328.417969 C 145.863281 301.4375 146.304688 263.722656 167.625 237.253906 C 170.417969 233.652344 170.050781 228.359375 166.742188 225.050781 Z M 166.742188 225.050781 "
            fill-opacity="1" fill-rule="nonzero" />
    </g>
</svg>