<svg xmlns="http://www.w3.org/2000/svg" width="14.422" height="15.458" viewBox="0 0 20.422 15.458">
    <g transform="translate(-11.341 -227)">
        <path d="M4.5,1.2A3.3,3.3,0,1,0,7.8,4.5,3.3,3.3,0,0,0,4.5,1.2M4.5,0A4.5,4.5,0,1,1,0,4.5,4.5,4.5,0,0,1,4.5,0Z" transform="translate(17 227)" fill="#020d47" />
        <path d="M102.871,151.911l-.191-.465a.6.6,0,0,1-.02-.4c.012-.172.034-.844-.024-3.368-.27-2.7-2.039-3.276-2.056-3.281a.6.6,0,1,1,.354-1.147c.1.032,2.56.83,2.9,4.334l0,.044c.033,1.438.045,2.473.036,3.076,0,.221-.01.379-.019.483a.618.618,0,0,1-.492.619Z" transform="translate(-76.461 90.547)" fill="#020d47" />
        <path d="M100.791,151.822a.6.6,0,0,1-.115-.011.615.615,0,0,1-.5-.623c-.009-.1-.015-.259-.018-.479-.009-.6,0-1.637.034-3.076l0-.041c.318-3.5,2.641-4.3,2.74-4.334l.375,1.14.006,0c-.068.024-1.675.623-1.924,3.285-.055,2.538-.034,3.206-.022,3.376a.6.6,0,0,1-.017.378A.605.605,0,0,1,100.791,151.822Z" transform="translate(-84.468 90.547)" fill="#020d47" />
        <path d="M101.962,150.331l-.165-.49a.6.6,0,0,1-.015-.329c.008-.139.022-.675-.016-2.662a2.475,2.475,0,0,0-.986-2.19,1.841,1.841,0,0,0-.871-.272.6.6,0,0,1-.027-1.2,2.993,2.993,0,0,1,1.529.451,3.571,3.571,0,0,1,1.555,3.178v.007c.021,1.135.029,1.952.023,2.426,0,.175-.006.3-.012.381a.613.613,0,0,1-.507.612Z" transform="translate(-71.577 90.547)" fill="#020d47" />
        <path d="M99.919,150.252a.6.6,0,0,1-.1-.009.613.613,0,0,1-.507-.612c-.006-.082-.01-.206-.012-.381-.006-.475,0-1.291.023-2.426v-.007a3.571,3.571,0,0,1,1.555-3.178,2.992,2.992,0,0,1,1.529-.451l-.027,1.2h0c-.19,0-1.788.072-1.862,2.463-.038,1.986-.024,2.522-.016,2.661a.6.6,0,0,1-.015.329A.6.6,0,0,1,99.919,150.252Z" transform="translate(-87.606 90.547)" fill="#020d47" />
        <path d="M93.472,146.78a3.108,3.108,0,0,1-.57-.047.6.6,0,1,1,.237-1.176,1.746,1.746,0,0,0,2.141-1.828,1.708,1.708,0,0,0-.453-1.3,2.151,2.151,0,0,0-1.434-.467.6.6,0,1,1-.083-1.2,3.358,3.358,0,0,1,2.334.785,2.858,2.858,0,0,1,.835,2.212l0,.045a3.191,3.191,0,0,1-1.175,2.406A3.056,3.056,0,0,1,93.472,146.78Z" transform="translate(-84.206 102.528) rotate(-8)" fill="#020d47" />
        <path d="M.434,5.419c-.083,0-.134,0-.144,0a.6.6,0,0,1,.083-1.2,2.148,2.148,0,0,0,1.433-.467,1.708,1.708,0,0,0,.453-1.3,2.046,2.046,0,0,0-.7-1.527A2.052,2.052,0,0,0,.119.625.6.6,0,0,1-.588.155a.6.6,0,0,1,.47-.707,3.267,3.267,0,0,1,2.4.516A3.191,3.191,0,0,1,3.457,2.371l0,.045a2.858,2.858,0,0,1-.835,2.212A3.291,3.291,0,0,1,.434,5.419Z" transform="translate(14.85 234.34) rotate(-172)" fill="#020d47" />
    </g>
</svg>