<svg xmlns="http://www.w3.org/2000/svg" xmlns:xlink="http://www.w3.org/1999/xlink" width="16" height="16.493" viewBox="0 0 17.917 23.493">
    <defs>
        <clipPath id="a">
            <path d="M122.516,122H137.2v20.123H122.516Zm0,0" transform="translate(-122.516 -122)" fill="#020d47" />
        </clipPath>
    </defs>
    <g transform="translate(-97.665 -115.62)">
        <path d="M168.1,187.368a.433.433,0,0,0-.212-.11.433.433,0,0,1,.212.11" transform="translate(-60.896 -59.707)" fill="#020d47" />
        <path d="M139.34,207.893v.341c.4,0,.8,0,1.193,0a.23.23,0,0,0,.207-.138c.248-.443.5-.883.75-1.324l.069-.123a.1.1,0,0,1,.047.073q.425,1.239.849,2.478a.222.222,0,0,0,.228.183.245.245,0,0,0,.253-.165q.483-.959.967-1.917c.01-.021.022-.039.044-.08.094.174.179.33.263.488l.233.443a.217.217,0,0,0,.206.123c.391,0,.784,0,1.183,0v-.339c-.3,0-.6,0-.9,0-.1,0-.135-.023-.169-.089-.2-.378-.4-.753-.6-1.13a.255.255,0,0,0-.455,0,.063.063,0,0,1-.008.02c-.3.59-.6,1.181-.895,1.771-.019.039-.042.076-.066.123a.651.651,0,0,1-.093-.217q-.4-1.156-.794-2.314a.214.214,0,0,0-.214-.169.242.242,0,0,0-.25.139c-.32.57-.647,1.141-.966,1.712a.2.2,0,0,1-.211.11c-.288-.009-.578,0-.878,0" transform="translate(-38.508 -74.138)" fill="#020d47" />
        <path d="M179.868,205.6a.645.645,0,0,0-.054.1.284.284,0,0,1-.034.06l-2.358,3.492a.359.359,0,0,1-.254.161.271.271,0,0,1-.051,0,.345.345,0,0,1-.23-.1l-1.718-1.612a.354.354,0,0,1-.038-.044.709.709,0,0,0-.074-.082.529.529,0,0,1-.18-.419.509.509,0,0,1,.389-.5.34.34,0,0,1,.339.067.511.511,0,0,1,.114.106l1.147,1.077a.193.193,0,0,0,.3-.035l1.858-2.753a.344.344,0,0,0,.036-.067.521.521,0,0,1,.16-.2.349.349,0,0,1,.264-.092h.019a.5.5,0,0,1,.467.533A.539.539,0,0,1,179.868,205.6Zm-.916-2.143a3.415,3.415,0,0,0-1.218-.357c-.109-.01-.221-.017-.331-.017a3.834,3.834,0,0,0-3.664,3.983,4.272,4.272,0,0,0,.156,1.15,4.087,4.087,0,0,0,.64,1.327,3.559,3.559,0,0,0,2.868,1.5,3.832,3.832,0,0,0,3.664-3.98,4.015,4.015,0,0,0-2.114-3.609" transform="translate(-65.485 -71.936)" fill="#020d47" />
        <path d="M147.642,135.777a.872.872,0,0,1,.85.9.773.773,0,0,1,0,.089.844.844,0,0,1-1.687,0,.855.855,0,0,1-.005-.094A.887.887,0,0,1,147.642,135.777Zm-4.231,3.1h8.46v-2.2H149.63c0-.078-.007-.135-.012-.194a1.745,1.745,0,0,0-1.234-1.627,4.433,4.433,0,0,0-1.337-.025,1.411,1.411,0,0,0-1.092.766,2.417,2.417,0,0,0-.3,1.094H143.41v.783h0v1.407" transform="translate(-41.7 -19.165)" fill="#020d47" />
        <path d="M143.412,147.985v-1.407h0v1.407h0" transform="translate(-41.7 -28.277)" fill="#020d47" />
        <path d="M138.965,164.93h1.443v1.519h-1.443V164.93" transform="translate(-38.214 -42.456)" fill="#020d47" />
        <path d="M147.957,165.8h4.3v.371h-4.3V165.8" transform="translate(-45.266 -43.126)" fill="#020d47" />
        <path d="M147.957,169.109h5.778v.371h-5.778v-.371" transform="translate(-45.266 -45.685)" fill="#020d47" />
        <path d="M170.137,165.8h3.681v.371h-3.681V165.8" transform="translate(-62.661 -43.126)" fill="#020d47" />
        <path d="M138.965,178.945h1.443v1.521h-1.443v-1.521" transform="translate(-38.214 -53.284)" fill="#020d47" />
        <path d="M147.957,179.813h4.3v.371h-4.3v-.371" transform="translate(-45.266 -53.955)" fill="#020d47" />
        <path d="M147.957,183.133h5.778v.371h-5.778v-.371" transform="translate(-45.266 -56.52)" fill="#020d47" />
        <path d="M170.1,179.813h2.759v.371H170.1v-.371" transform="translate(-62.63 -53.955)" fill="#020d47" />
        <path d="M138.965,194.094h1.443v1.52h-1.443v-1.52" transform="translate(-38.214 -64.989)" fill="#020d47" />
        <path d="M147.957,194.961h4.3v.371h-4.3v-.371" transform="translate(-45.266 -65.658)" fill="#020d47" />
        <path d="M147.957,198.281h5.751v.371h-5.751v-.371" transform="translate(-45.266 -68.224)" fill="#020d47" />
        <path d="M170.121,194.961h3.325v.371h-3.325v-.371" transform="translate(-62.648 -65.658)" fill="#020d47" />
        <path d="M208.763,123h1.247a1.05,1.05,0,0,1,.981,1.107l0,10.059a.359.359,0,1,0,.713,0l0-10.059a1.815,1.815,0,0,0-1.694-1.912h-1.247a.405.405,0,0,0,0,.8" transform="translate(-97.707 -3.693)" fill="#020d47" />
        <g transform="translate(97.665 118.668)" clip-path="url(#a)">
            <path d="M133.721,141.488h-9.5a1.05,1.05,0,0,1-.981-1.106V124.111a1.05,1.05,0,0,1,.981-1.107h1.149a.405.405,0,0,0,0-.8h-1.149a1.815,1.815,0,0,0-1.694,1.912v16.271a1.814,1.814,0,0,0,1.694,1.911h9.5" transform="translate(-122.522 -122.169)" fill="#020d47" />
        </g>
    </g>
</svg>