<svg xmlns="http://www.w3.org/2000/svg" xmlns:xlink="http://www.w3.org/1999/xlink" width="16" height="16" viewBox="0 0 17.678 22.263">
    <defs>
        <clipPath id="a">
            <path d="M147,107.578h8.166v9.116H147Zm0,0" transform="translate(-147 -107.578)" fill="#020d47" />
        </clipPath>
        <clipPath id="b">
            <path d="M182.438,172.277h9.786v11.158h-9.786Zm0,0" transform="translate(-182.438 -172.277)" fill="#020d47" />
        </clipPath>
        <clipPath id="c">
            <path d="M122.516,122H137.2v20.123H122.516Zm0,0" transform="translate(-122.516 -122)" fill="#020d47" />
        </clipPath>
    </defs>
    <g transform="translate(-122.516 -107.578)">
        <g transform="translate(125.741 107.578)" clip-path="url(#a)">
            <path d="M151.684,116.581a4.273,4.273,0,0,0,3.989-4.5,5.133,5.133,0,0,0-.037-.611.366.366,0,0,0-.4-.344.4.4,0,0,0-.305.453,4.311,4.311,0,0,1,.03.5,3.3,3.3,0,1,1-3.276-3.7,3.07,3.07,0,0,1,2.218.978.329.329,0,0,0,.5-.024.439.439,0,0,0-.021-.568,3.74,3.74,0,0,0-2.7-1.19,4.534,4.534,0,0,0,0,9" transform="translate(-147.603 -107.578)" fill="#020d47" />
        </g>
        <path d="M162.975,124.029a.328.328,0,0,0-.5,0,.44.44,0,0,0,0,.569l1.741,1.965a.329.329,0,0,0,.5,0l3.173-3.58a.441.441,0,0,0,0-.569.329.329,0,0,0-.5,0l-2.92,3.3-1.489-1.681" transform="translate(-34.602 -12.533)" fill="#020d47" />
        <path d="M149.376,200.984a.381.381,0,0,0-.357-.4h-7.264a.405.405,0,0,0,0,.8h7.264a.382.382,0,0,0,.357-.4" transform="translate(-16.395 -79.2)" fill="#020d47" />
        <path d="M147.88,212.558a.381.381,0,0,0-.357-.4h-5.769a.4.4,0,0,0,0,.8h5.769a.381.381,0,0,0,.357-.4" transform="translate(-16.395 -89.056)" fill="#020d47" />
        <path d="M144.248,224.132a.382.382,0,0,0-.357-.4h-2.137a.405.405,0,0,0,0,.8h2.137a.381.381,0,0,0,.357-.4" transform="translate(-16.395 -98.912)" fill="#020d47" />
        <g transform="translate(130.408 117.181)" clip-path="url(#b)">
            <path d="M191.563,175.242l-.495.558-1.538-1.735.494-.558a.073.073,0,0,1,.055-.026.072.072,0,0,1,.054.026l1.43,1.614A.094.094,0,0,1,191.563,175.242Zm-5.643,6.368-1.538-1.735,4.644-5.241,1.538,1.736Zm-1.5,1.028-1.046.163.115-1.2a2.5,2.5,0,0,1,.4-1.14l1.513,1.707A1.953,1.953,0,0,1,184.423,182.638Zm6.989-9.207.195.22-.169.19-.2-.22Zm.53.979.271-.305a.7.7,0,0,0,0-.908l-.4-.45a.525.525,0,0,0-.8,0l-.271.306-.1-.115a.729.729,0,0,0-1.116,0l-.747.842h0l-5.147,5.809h0l-.05.056a3.3,3.3,0,0,0-.792,1.866l-.164,1.714a.433.433,0,0,0,.106.332.338.338,0,0,0,.248.114.345.345,0,0,0,.049,0l1.5-.234a2.674,2.674,0,0,0,1.572-.882l4.975-5.615.07.079a.211.211,0,0,1,0,.272l-2.109,2.379a.441.441,0,0,0,0,.569.329.329,0,0,0,.5,0l2.108-2.38a1.091,1.091,0,0,0,0-1.41l-.07-.078.495-.558a.976.976,0,0,0,0-1.261l-.126-.141" transform="translate(-182.594 -172.517)" fill="#020d47" />
        </g>
        <path d="M150.515,177.434h-8.76a.4.4,0,0,0,0,.8h8.76a.4.4,0,0,0,0-.8" transform="translate(-16.395 -59.488)" fill="#020d47" />
        <path d="M150.871,189.41a.381.381,0,0,0-.357-.4h-8.76a.405.405,0,0,0,0,.8h8.76a.382.382,0,0,0,.357-.4" transform="translate(-16.395 -69.344)" fill="#020d47" />
        <path d="M208.763,123h1.247a1.05,1.05,0,0,1,.981,1.107v5.224a.359.359,0,1,0,.713,0v-5.224a1.815,1.815,0,0,0-1.694-1.912h-1.247a.405.405,0,0,0,0,.8" transform="translate(-74.578 -12.451)" fill="#020d47" />
        <g transform="translate(122.516 109.719)" clip-path="url(#c)">
            <path d="M136.775,137.934a.382.382,0,0,0-.357.4v2.045a1.05,1.05,0,0,1-.981,1.106H124.217a1.05,1.05,0,0,1-.981-1.106V124.111a1.05,1.05,0,0,1,.981-1.107h1.149a.405.405,0,0,0,0-.8h-1.149a1.815,1.815,0,0,0-1.694,1.912v16.271a1.814,1.814,0,0,0,1.694,1.911h11.221a1.814,1.814,0,0,0,1.694-1.911v-2.045a.382.382,0,0,0-.357-.4" transform="translate(-122.522 -122.169)" fill="#020d47" />
        </g>
        <path d="M145.913,237.465c.326-.274.439-.209.687-.068a1.03,1.03,0,0,0,.915.151,1.716,1.716,0,0,0,.733-.637c.029-.038.065-.084.1-.125l.026.055a1.3,1.3,0,0,0,.713.75.957.957,0,0,0,.332.059,1.072,1.072,0,0,0,.5-.129l-.326-.716.005,0c-.135.072-.392.126-.592-.323-.1-.227-.27-.533-.571-.576-.324-.046-.539.232-.728.477a1.211,1.211,0,0,1-.407.4c-.116.041-.193.006-.383-.1a1.078,1.078,0,0,0-1.434.142.437.437,0,0,0-.073.563.331.331,0,0,0,.5.082" transform="translate(-19.821 -109.276)" fill="#020d47" />
    </g>
</svg>