<svg xmlns="http://www.w3.org/2000/svg" xmlns:xlink="http://www.w3.org/1999/xlink" width="500" zoomAndPan="magnify"
    viewBox="0 0 375 374.999991" height="500" preserveAspectRatio="xMidYMid meet" version="1.0">
    <path fill="#20C6FE"
        d="M 37.4375 106.386719 L 87.355469 106.386719 C 90.800781 106.386719 93.59375 103.589844 93.59375 100.144531 L 93.59375 81.425781 L 81.113281 81.425781 L 81.113281 93.90625 L 43.675781 93.90625 L 43.675781 56.46875 L 62.394531 56.46875 L 62.394531 43.988281 L 37.4375 43.988281 C 33.992188 43.988281 31.199219 46.78125 31.199219 50.230469 L 31.199219 100.144531 C 31.199219 103.589844 33.992188 106.386719 37.4375 106.386719 Z M 37.4375 106.386719 "
        fill-opacity="1" fill-rule="nonzero" />
    <path fill="#20C6FE"
        d="M 62.394531 72.605469 L 54.328125 64.535156 L 45.503906 73.359375 L 57.984375 85.839844 C 59.203125 87.058594 60.800781 87.667969 62.394531 87.667969 C 63.992188 87.667969 65.589844 87.058594 66.808594 85.839844 L 104.246094 48.402344 L 95.421875 39.578125 Z M 62.394531 72.605469 "
        fill-opacity="1" fill-rule="nonzero" />
    <path fill="#20C6FE"
        d="M 81.113281 175.019531 L 43.675781 175.019531 L 43.675781 137.582031 L 62.394531 137.582031 L 62.394531 125.105469 L 37.4375 125.105469 C 33.992188 125.105469 31.199219 127.898438 31.199219 131.34375 L 31.199219 181.261719 C 31.199219 184.707031 33.992188 187.5 37.4375 187.5 L 87.355469 187.5 C 90.800781 187.5 93.59375 184.707031 93.59375 181.261719 L 93.59375 162.542969 L 81.113281 162.542969 Z M 81.113281 175.019531 "
        fill-opacity="1" fill-rule="nonzero" />
    <path fill="#20C6FE"
        d="M 62.394531 153.71875 L 54.328125 145.652344 L 45.503906 154.472656 L 57.984375 166.953125 C 59.203125 168.171875 60.800781 168.78125 62.394531 168.78125 C 63.992188 168.78125 65.589844 168.171875 66.808594 166.953125 L 104.246094 129.515625 L 95.421875 120.691406 Z M 62.394531 153.71875 "
        fill-opacity="1" fill-rule="nonzero" />
    <path fill="#20C6FE"
        d="M 87.355469 206.21875 L 37.4375 206.21875 C 33.992188 206.21875 31.199219 209.011719 31.199219 212.457031 L 31.199219 262.375 C 31.199219 265.820312 33.992188 268.613281 37.4375 268.613281 L 87.355469 268.613281 C 90.800781 268.613281 93.59375 265.820312 93.59375 262.375 L 93.59375 212.457031 C 93.59375 209.011719 90.800781 206.21875 87.355469 206.21875 Z M 81.113281 256.136719 L 43.675781 256.136719 L 43.675781 218.699219 L 81.113281 218.699219 Z M 81.113281 256.136719 "
        fill-opacity="1" fill-rule="nonzero" />
    <path fill="#20C6FE"
        d="M 87.355469 287.332031 L 37.4375 287.332031 C 33.992188 287.332031 31.199219 290.128906 31.199219 293.574219 L 31.199219 343.488281 C 31.199219 346.9375 33.992188 349.730469 37.4375 349.730469 L 87.355469 349.730469 C 90.800781 349.730469 93.59375 346.9375 93.59375 343.488281 L 93.59375 293.574219 C 93.59375 290.128906 90.800781 287.332031 87.355469 287.332031 Z M 81.113281 337.25 L 43.675781 337.25 L 43.675781 299.8125 L 81.113281 299.8125 Z M 81.113281 337.25 "
        fill-opacity="1" fill-rule="nonzero" />
    <path fill="#20C6FE"
        d="M 347.589844 20.859375 C 345.152344 18.421875 341.203125 18.421875 338.765625 20.859375 L 299.5 60.125 L 241.515625 2.140625 C 240.347656 0.96875 238.757812 0.3125 237.105469 0.3125 L 6.238281 0.3125 C 2.792969 0.3125 0 3.105469 0 6.550781 L 0 368.449219 C 0 371.894531 2.792969 374.6875 6.238281 374.6875 L 299.5 374.6875 C 302.945312 374.6875 305.742188 371.894531 305.742188 368.449219 L 305.742188 121.449219 L 372.546875 54.640625 C 374.984375 52.203125 374.984375 48.253906 372.546875 45.816406 Z M 293.261719 362.207031 L 12.480469 362.207031 L 12.480469 12.792969 L 234.519531 12.792969 L 284.4375 62.707031 L 243.34375 62.707031 L 243.34375 31.511719 L 230.863281 31.511719 L 230.863281 68.949219 C 230.863281 72.394531 233.660156 75.1875 237.105469 75.1875 L 284.4375 75.1875 L 139.097656 220.527344 C 138.414062 221.210938 137.898438 222.046875 137.589844 222.964844 L 125.113281 260.402344 C 124.367188 262.644531 124.949219 265.117188 126.621094 266.785156 C 127.808594 267.976562 129.40625 268.613281 131.03125 268.613281 C 131.691406 268.613281 132.355469 268.511719 133.007812 268.292969 L 170.445312 255.816406 C 171.359375 255.507812 172.195312 254.992188 172.878906 254.308594 L 293.261719 133.925781 Z M 146.238281 236.488281 L 156.917969 247.167969 L 140.898438 252.511719 Z M 168.46875 241.074219 L 152.335938 224.9375 L 343.179688 34.09375 L 359.3125 50.230469 Z M 168.46875 241.074219 "
        fill-opacity="1" fill-rule="nonzero" />
    <path fill="#20C6FE"
        d="M 268.304688 337.25 L 280.78125 337.25 L 280.78125 349.730469 L 268.304688 349.730469 Z M 268.304688 337.25 "
        fill-opacity="1" fill-rule="nonzero" />
    <path fill="#20C6FE"
        d="M 243.34375 337.25 L 255.824219 337.25 L 255.824219 349.730469 L 243.34375 349.730469 Z M 243.34375 337.25 "
        fill-opacity="1" fill-rule="nonzero" />
    <path fill="#20C6FE"
        d="M 218.386719 337.25 L 230.863281 337.25 L 230.863281 349.730469 L 218.386719 349.730469 Z M 218.386719 337.25 "
        fill-opacity="1" fill-rule="nonzero" />
</svg>