<svg xmlns="http://www.w3.org/2000/svg" xmlns:xlink="http://www.w3.org/1999/xlink" width="170" zoomAndPan="magnify" viewBox="0 0 224.87999 52.499999" height="35" preserveAspectRatio="xMidYMid meet" version="1.0">
    <defs>
        <g />
        <clipPath id="id1">
            <path d="M 39 2.042969 L 50.035156 2.042969 L 50.035156 13 L 39 13 Z M 39 2.042969 " clip-rule="nonzero" />
        </clipPath>
        <clipPath id="id2">
            <path d="M 35 42 L 43 42 L 43 49.589844 L 35 49.589844 Z M 35 42 " clip-rule="nonzero" />
        </clipPath>
        <clipPath id="id3">
            <path d="M 20 25.265625 L 22 25.265625 L 22 27 L 20 27 Z M 20 25.265625 " clip-rule="nonzero" />
        </clipPath>
        <clipPath id="id4">
            <path d="M 24 25.265625 L 26 25.265625 L 26 27 L 24 27 Z M 24 25.265625 " clip-rule="nonzero" />
        </clipPath>
        <clipPath id="id5">
            <path d="M 17.105469 26.480469 L 28.246094 26.480469 L 28.246094 31.210938 L 17.105469 31.210938 Z M 17.105469 26.480469 " clip-rule="nonzero" />
        </clipPath>
    </defs>
    <g clip-path="url(#id1)">
        <path fill="#0e254e" d="M 44.914062 2.046875 C 47.738281 2.046875 50.035156 4.316406 50.035156 7.117188 C 50.035156 9.921875 47.738281 12.191406 44.914062 12.191406 C 42.082031 12.191406 39.789062 9.921875 39.789062 7.117188 C 39.789062 4.316406 42.082031 2.046875 44.914062 2.046875 Z M 44.914062 2.046875 " fill-opacity="1" fill-rule="evenodd" />
    </g>
    <path fill="#0e254e" d="M 28.074219 7.117188 L 37.753906 7.117188 C 37.753906 11.03125 40.957031 14.207031 44.914062 14.207031 L 44.914062 23.792969 C 44.914062 26.847656 42.386719 29.347656 39.300781 29.347656 L 29.726562 29.347656 C 31.449219 27.621094 31.445312 24.816406 29.710938 23.101562 C 27.96875 21.378906 25.125 21.378906 23.382812 23.101562 L 22.503906 23.972656 L 22.460938 23.933594 L 22.460938 12.675781 C 22.460938 9.621094 24.988281 7.117188 28.074219 7.117188 Z M 28.074219 7.117188 " fill-opacity="1" fill-rule="evenodd" />
    <path fill="#22c6fe" d="M 4.988281 8.101562 C 2.785156 8.101562 1 9.867188 1 12.046875 C 1 14.226562 2.785156 15.996094 4.988281 15.996094 C 7.191406 15.996094 8.976562 14.226562 8.976562 12.046875 C 8.976562 9.867188 7.191406 8.101562 4.988281 8.101562 Z M 4.988281 8.101562 " fill-opacity="1" fill-rule="evenodd" />
    <path fill="#22c6fe" d="M 18.09375 12.046875 L 10.558594 12.046875 C 10.558594 15.089844 8.0625 17.558594 4.988281 17.558594 L 4.988281 25.023438 C 4.988281 27.402344 6.953125 29.347656 9.355469 29.347656 L 15.273438 29.347656 C 13.554688 27.621094 13.558594 24.816406 15.292969 23.101562 C 17.03125 21.378906 19.878906 21.378906 21.617188 23.101562 L 22.460938 23.933594 L 22.460938 16.371094 C 22.460938 13.992188 20.492188 12.046875 18.09375 12.046875 Z M 18.09375 12.046875 " fill-opacity="1" fill-rule="evenodd" />
    <g clip-path="url(#id2)">
        <path fill="#22c6fe" d="M 39.105469 49.585938 C 41.203125 49.585938 42.90625 47.902344 42.90625 45.828125 C 42.90625 43.75 41.203125 42.066406 39.105469 42.066406 C 37.007812 42.066406 35.308594 43.75 35.308594 45.828125 C 35.308594 47.902344 37.007812 49.585938 39.105469 49.585938 Z M 39.105469 49.585938 " fill-opacity="1" fill-rule="evenodd" />
    </g>
    <path fill="#22c6fe" d="M 26.621094 45.828125 L 33.800781 45.828125 C 33.800781 42.925781 36.175781 40.574219 39.105469 40.574219 L 39.105469 33.464844 C 39.105469 31.199219 37.234375 29.347656 34.945312 29.347656 L 29.726562 29.347656 C 29.722656 29.351562 29.714844 29.359375 29.707031 29.363281 L 28.828125 30.238281 L 22.5 36.5 L 22.460938 36.460938 L 22.460938 41.707031 C 22.460938 43.972656 24.332031 45.824219 26.621094 45.824219 Z M 26.621094 45.828125 " fill-opacity="1" fill-rule="evenodd" />
    <path fill="#0e254e" d="M 7.414062 47.644531 C 5.519531 47.644531 3.984375 46.117188 3.984375 44.246094 C 3.984375 42.367188 5.519531 40.84375 7.414062 40.84375 C 9.3125 40.84375 10.847656 42.367188 10.847656 44.246094 C 10.847656 46.121094 9.3125 47.644531 7.414062 47.644531 Z M 7.414062 47.644531 " fill-opacity="1" fill-rule="evenodd" />
    <path fill="#0e254e" d="M 18.699219 44.246094 L 12.210938 44.246094 C 12.210938 41.621094 10.0625 39.496094 7.414062 39.496094 L 7.414062 33.070312 C 7.414062 31.019531 9.109375 29.347656 11.175781 29.347656 L 15.277344 29.347656 C 15.28125 29.351562 15.289062 29.359375 15.292969 29.363281 L 16.175781 30.238281 L 22.460938 36.460938 L 22.460938 40.519531 C 22.460938 42.566406 20.769531 44.246094 18.699219 44.246094 Z M 18.699219 44.246094 " fill-opacity="1" fill-rule="evenodd" />
    <g clip-path="url(#id3)">
        <path fill="#0e254e" d="M 21.28125 26.320312 C 21.585938 26.320312 21.832031 26.085938 21.832031 25.792969 C 21.832031 25.503906 21.585938 25.265625 21.28125 25.265625 C 20.976562 25.265625 20.726562 25.503906 20.726562 25.792969 C 20.726562 26.085938 20.976562 26.320312 21.28125 26.320312 " fill-opacity="1" fill-rule="nonzero" />
    </g>
    <g clip-path="url(#id4)">
        <path fill="#0e254e" d="M 24.582031 26.492188 C 24.875 26.492188 25.109375 26.265625 25.109375 25.988281 C 25.109375 25.710938 24.875 25.484375 24.582031 25.484375 C 24.292969 25.484375 24.054688 25.710938 24.054688 25.988281 C 24.054688 26.265625 24.292969 26.492188 24.582031 26.492188 " fill-opacity="1" fill-rule="nonzero" />
    </g>
    <path fill="#0e254e" d="M 26.953125 27.933594 C 27.152344 27.933594 27.3125 27.777344 27.3125 27.589844 C 27.3125 27.398438 27.152344 27.246094 26.953125 27.246094 C 26.753906 27.246094 26.59375 27.398438 26.59375 27.589844 C 26.59375 27.777344 26.753906 27.933594 26.953125 27.933594 " fill-opacity="1" fill-rule="nonzero" />
    <g clip-path="url(#id5)">
        <path fill="#0e254e" d="M 27.917969 27.585938 C 27.71875 27.875 27.355469 28.144531 26.902344 28.125 C 25.886719 28.082031 26.039062 26.679688 24.65625 26.6875 C 24.019531 26.691406 21.964844 26.535156 21.355469 26.488281 C 19.871094 26.378906 19.476562 27.855469 18.46875 27.976562 C 17.960938 28.042969 17.617188 27.769531 17.433594 27.535156 C 17.164062 27.195312 17.03125 27.324219 17.152344 27.6875 C 17.253906 28.003906 17.527344 28.464844 18.054688 28.535156 C 18.054688 28.535156 17.792969 29.585938 17.816406 30.015625 L 18.144531 30.078125 C 18.195312 30.75 18.132812 31.222656 18.320312 31.210938 C 18.496094 31.199219 18.488281 30.859375 18.628906 30.121094 C 18.695312 31.039062 18.742188 31.210938 18.878906 31.210938 C 19.019531 31.210938 19.078125 30.847656 19.101562 30.132812 L 19.457031 30.054688 C 19.46875 29.484375 19.109375 28.488281 19.109375 28.488281 C 19.144531 28.46875 20.179688 27.535156 20.421875 27.6875 C 20.421875 27.6875 20.410156 28.773438 20.425781 29.328125 C 20.460938 30.367188 20.484375 31.195312 20.761719 31.195312 C 21.050781 31.195312 21.023438 30.664062 21.125 29.328125 C 21.324219 30.40625 21.320312 31.179688 21.574219 31.195312 C 21.847656 31.210938 21.789062 30.308594 21.863281 29.328125 C 21.890625 28.980469 21.910156 28.550781 21.929688 28.066406 C 21.941406 27.800781 22.316406 27.273438 22.96875 27.273438 C 23.496094 27.273438 23.605469 27.890625 23.546875 28.074219 C 23.402344 28.523438 23.269531 29.015625 23.277344 29.578125 L 23.777344 29.691406 C 23.808594 30.691406 23.886719 31.195312 24.089844 31.195312 C 24.277344 31.195312 24.339844 30.953125 24.4375 29.671875 C 24.628906 30.707031 24.621094 31.179688 24.863281 31.195312 C 25.128906 31.210938 25.039062 30.550781 25.109375 29.613281 L 25.570312 29.53125 C 25.597656 28.929688 25.296875 27.726562 25.296875 27.726562 C 25.746094 28.015625 26 28.597656 26.507812 28.652344 C 26.507812 28.652344 26.546875 29.628906 26.574219 29.976562 C 26.621094 30.617188 26.582031 31.207031 26.761719 31.195312 C 26.925781 31.183594 26.925781 30.679688 27.054688 29.976562 C 27.121094 30.847656 27.101562 31.195312 27.289062 31.195312 C 27.472656 31.195312 27.488281 30.65625 27.507812 29.976562 C 27.519531 29.613281 27.511719 28.609375 27.511719 28.609375 C 27.886719 28.371094 28.027344 28.089844 28.191406 27.742188 C 28.34375 27.421875 28.144531 27.25 27.917969 27.585938 " fill-opacity="1" fill-rule="nonzero" />
    </g>
    <path fill="#0e254e" d="M 18.523438 27.804688 C 18.730469 27.804688 18.902344 27.640625 18.902344 27.441406 C 18.902344 27.242188 18.730469 27.082031 18.523438 27.082031 C 18.3125 27.082031 18.144531 27.242188 18.144531 27.441406 C 18.144531 27.640625 18.3125 27.804688 18.523438 27.804688 " fill-opacity="1" fill-rule="nonzero" />
    <g fill="#0e254e" fill-opacity="1">
        <g transform="translate(57.443026, 29.690777)">
            <g>
                <path d="M 12.21875 -7.855469 L 9.910156 -7.855469 C 9.585938 -7.855469 9.308594 -7.730469 9.058594 -7.476562 C 8.808594 -7.226562 8.707031 -6.949219 8.707031 -6.648438 C 8.707031 -6.324219 8.808594 -6.046875 9.058594 -5.796875 C 9.308594 -5.546875 9.585938 -5.445312 9.910156 -5.445312 L 10.867188 -5.445312 L 10.867188 -2.984375 C 10.0625 -2.535156 9.160156 -2.308594 8.179688 -2.308594 C 7.753906 -2.308594 7.351562 -2.332031 6.976562 -2.410156 C 6.601562 -2.460938 6.199219 -2.609375 5.746094 -2.835938 C 5.292969 -3.0625 4.894531 -3.363281 4.566406 -3.714844 C 4.242188 -4.066406 3.964844 -4.59375 3.765625 -5.246094 C 3.539062 -5.898438 3.4375 -6.675781 3.4375 -7.578125 C 3.4375 -8.53125 3.5625 -9.335938 3.839844 -10.011719 C 4.117188 -10.691406 4.492188 -11.191406 4.992188 -11.542969 C 5.46875 -11.871094 5.972656 -12.09375 6.472656 -12.246094 C 6.976562 -12.394531 7.554688 -12.472656 8.179688 -12.472656 C 9.234375 -12.472656 10.164062 -12.269531 10.941406 -11.894531 C 11.089844 -11.792969 11.265625 -11.769531 11.441406 -11.769531 C 11.742188 -11.769531 12.019531 -11.871094 12.269531 -12.121094 C 12.523438 -12.347656 12.648438 -12.621094 12.648438 -12.949219 C 12.648438 -13.398438 12.445312 -13.75 12.046875 -13.976562 C 10.964844 -14.605469 9.6875 -14.929688 8.207031 -14.929688 C 7.328125 -14.929688 6.472656 -14.78125 5.644531 -14.527344 C 4.816406 -14.253906 4.039062 -13.851562 3.3125 -13.300781 C 2.558594 -12.746094 1.980469 -11.996094 1.53125 -11.042969 C 1.078125 -10.0625 0.878906 -8.933594 0.878906 -7.652344 C 0.878906 -6.425781 1.027344 -5.34375 1.378906 -4.390625 C 1.730469 -3.4375 2.15625 -2.683594 2.683594 -2.132812 C 3.1875 -1.582031 3.789062 -1.105469 4.464844 -0.753906 C 5.144531 -0.402344 5.796875 -0.152344 6.398438 -0.0234375 C 7 0.101562 7.628906 0.152344 8.230469 0.152344 C 8.984375 0.152344 9.8125 0.0234375 10.714844 -0.25 C 11.617188 -0.5 12.371094 -0.902344 12.972656 -1.40625 C 13.273438 -1.65625 13.425781 -2.007812 13.425781 -2.433594 L 13.425781 -6.648438 C 13.425781 -6.949219 13.300781 -7.226562 13.046875 -7.476562 C 12.796875 -7.730469 12.523438 -7.855469 12.21875 -7.855469 Z M 12.21875 -7.855469 " />
            </g>
        </g>
    </g>
    <g fill="#0e254e" fill-opacity="1">
        <g transform="translate(72.495309, 29.690777)">
            <g>
                <path d="M 7 -14.804688 C 6.550781 -14.804688 6.148438 -14.65625 5.796875 -14.402344 C 5.445312 -14.128906 5.195312 -13.800781 5.042969 -13.398438 L 0.703125 -1.730469 C 0.652344 -1.582031 0.628906 -1.40625 0.628906 -1.253906 C 0.628906 -0.902344 0.726562 -0.601562 0.980469 -0.351562 C 1.230469 -0.101562 1.53125 0 1.882812 0 C 2.433594 0 2.835938 -0.25 3.0625 -0.753906 L 4.039062 -3.363281 L 10.039062 -3.363281 L 11.015625 -0.753906 C 11.21875 -0.25 11.617188 0 12.195312 0 C 12.546875 0 12.824219 -0.101562 13.074219 -0.351562 C 13.324219 -0.601562 13.449219 -0.902344 13.449219 -1.253906 C 13.449219 -1.40625 13.425781 -1.582031 13.375 -1.730469 L 9.035156 -13.398438 C 8.882812 -13.800781 8.605469 -14.152344 8.253906 -14.402344 C 7.878906 -14.65625 7.453125 -14.804688 7 -14.804688 Z M 4.917969 -5.722656 L 7.027344 -11.417969 L 9.160156 -5.722656 Z M 4.917969 -5.722656 " />
            </g>
        </g>
    </g>
    <g fill="#0e254e" fill-opacity="1">
        <g transform="translate(86.569197, 29.690777)">
            <g>
                <path d="M 7.277344 -14.804688 L 2.785156 -14.804688 C 2.433594 -14.804688 2.132812 -14.679688 1.882812 -14.429688 C 1.632812 -14.179688 1.503906 -13.875 1.503906 -13.527344 L 1.503906 -1.28125 C 1.503906 -0.929688 1.632812 -0.628906 1.882812 -0.375 C 2.132812 -0.125 2.433594 0 2.785156 0 L 7.777344 0 C 9.535156 0 10.789062 -0.402344 11.566406 -1.203125 C 12.320312 -2.007812 12.722656 -2.984375 12.722656 -4.140625 C 12.722656 -5.921875 11.996094 -7.050781 10.5625 -7.503906 C 11.519531 -8.15625 11.996094 -9.210938 11.996094 -10.664062 C 11.996094 -11.46875 11.84375 -12.171875 11.566406 -12.746094 C 11.265625 -13.324219 10.890625 -13.75 10.390625 -14.027344 C 9.886719 -14.304688 9.410156 -14.503906 8.910156 -14.628906 C 8.40625 -14.730469 7.855469 -14.804688 7.277344 -14.804688 Z M 7.078125 -8.605469 L 4.066406 -8.605469 L 4.066406 -12.347656 L 7.078125 -12.347656 C 8.632812 -12.347656 9.433594 -11.742188 9.433594 -10.589844 C 9.433594 -10.136719 9.359375 -9.761719 9.210938 -9.484375 C 9.058594 -9.183594 8.859375 -8.984375 8.582031 -8.882812 C 8.304688 -8.757812 8.054688 -8.683594 7.855469 -8.65625 C 7.628906 -8.605469 7.378906 -8.605469 7.078125 -8.605469 Z M 7.804688 -2.460938 L 4.066406 -2.460938 L 4.066406 -6.273438 L 7.804688 -6.273438 C 8.429688 -6.273438 8.984375 -6.121094 9.460938 -5.847656 C 9.910156 -5.570312 10.164062 -5.09375 10.164062 -4.417969 C 10.164062 -3.839844 10.011719 -3.386719 9.738281 -3.085938 C 9.433594 -2.785156 9.160156 -2.585938 8.859375 -2.535156 C 8.558594 -2.484375 8.207031 -2.460938 7.804688 -2.460938 Z M 7.804688 -2.460938 " />
            </g>
        </g>
    </g>
    <g fill="#0e254e" fill-opacity="1">
        <g transform="translate(100.291863, 29.690777)">
            <g>
                <path d="M 7 -14.804688 C 6.550781 -14.804688 6.148438 -14.65625 5.796875 -14.402344 C 5.445312 -14.128906 5.195312 -13.800781 5.042969 -13.398438 L 0.703125 -1.730469 C 0.652344 -1.582031 0.628906 -1.40625 0.628906 -1.253906 C 0.628906 -0.902344 0.726562 -0.601562 0.980469 -0.351562 C 1.230469 -0.101562 1.53125 0 1.882812 0 C 2.433594 0 2.835938 -0.25 3.0625 -0.753906 L 4.039062 -3.363281 L 10.039062 -3.363281 L 11.015625 -0.753906 C 11.21875 -0.25 11.617188 0 12.195312 0 C 12.546875 0 12.824219 -0.101562 13.074219 -0.351562 C 13.324219 -0.601562 13.449219 -0.902344 13.449219 -1.253906 C 13.449219 -1.40625 13.425781 -1.582031 13.375 -1.730469 L 9.035156 -13.398438 C 8.882812 -13.800781 8.605469 -14.152344 8.253906 -14.402344 C 7.878906 -14.65625 7.453125 -14.804688 7 -14.804688 Z M 4.917969 -5.722656 L 7.027344 -11.417969 L 9.160156 -5.722656 Z M 4.917969 -5.722656 " />
            </g>
        </g>
    </g>
    <g fill="#0e254e" fill-opacity="1">
        <g transform="translate(114.36575, 29.690777)">
            <g>
                <path d="M 9.960938 -14.203125 L 6.324219 -7.953125 L 2.734375 -14.203125 C 2.484375 -14.605469 2.132812 -14.804688 1.65625 -14.804688 C 1.28125 -14.804688 0.980469 -14.679688 0.726562 -14.429688 C 0.476562 -14.179688 0.375 -13.875 0.375 -13.527344 C 0.375 -13.273438 0.425781 -13.074219 0.527344 -12.871094 L 5.070312 -4.992188 L 5.070312 -1.28125 C 5.070312 -0.929688 5.195312 -0.628906 5.445312 -0.375 C 5.695312 -0.125 5.996094 0 6.347656 0 C 6.699219 0 7 -0.125 7.253906 -0.375 C 7.503906 -0.628906 7.628906 -0.929688 7.628906 -1.28125 L 7.628906 -4.992188 L 12.171875 -12.871094 C 12.269531 -13.074219 12.320312 -13.273438 12.320312 -13.527344 C 12.320312 -13.875 12.195312 -14.179688 11.945312 -14.429688 C 11.695312 -14.679688 11.390625 -14.804688 11.042969 -14.804688 C 10.539062 -14.804688 10.1875 -14.605469 9.960938 -14.203125 Z M 9.960938 -14.203125 " />
            </g>
        </g>
    </g>
    <g fill="#0e254e" fill-opacity="1">
        <g transform="translate(127.059842, 29.690777)">
            <g />
        </g>
    </g>
    <g fill="#0e254e" fill-opacity="1">
        <g transform="translate(132.052185, 29.690777)">
            <g>
                <path d="M 5.246094 -12.347656 L 5.246094 -1.28125 C 5.246094 -0.929688 5.371094 -0.628906 5.621094 -0.375 C 5.871094 -0.125 6.171875 0 6.523438 0 C 6.875 0 7.175781 -0.125 7.425781 -0.375 C 7.679688 -0.628906 7.804688 -0.929688 7.804688 -1.28125 L 7.804688 -12.347656 L 10.941406 -12.347656 C 11.265625 -12.347656 11.542969 -12.445312 11.792969 -12.699219 C 12.046875 -12.949219 12.171875 -13.222656 12.171875 -13.574219 C 12.171875 -13.902344 12.046875 -14.179688 11.792969 -14.429688 C 11.542969 -14.679688 11.265625 -14.804688 10.941406 -14.804688 L 2.109375 -14.804688 C 1.757812 -14.804688 1.480469 -14.679688 1.230469 -14.429688 C 0.980469 -14.179688 0.878906 -13.902344 0.878906 -13.574219 C 0.878906 -13.222656 0.980469 -12.949219 1.230469 -12.699219 C 1.480469 -12.445312 1.757812 -12.347656 2.109375 -12.347656 Z M 5.246094 -12.347656 " />
            </g>
        </g>
    </g>
    <g fill="#0e254e" fill-opacity="1">
        <g transform="translate(145.097499, 29.690777)">
            <g>
                <path d="M 13.476562 -6.726562 L 13.476562 -13.527344 C 13.476562 -13.875 13.351562 -14.179688 13.097656 -14.429688 C 12.847656 -14.679688 12.546875 -14.804688 12.195312 -14.804688 C 11.84375 -14.804688 11.542969 -14.679688 11.292969 -14.429688 C 11.042969 -14.179688 10.914062 -13.875 10.914062 -13.527344 L 10.914062 -6.925781 C 10.914062 -3.839844 9.761719 -2.308594 7.476562 -2.308594 C 5.195312 -2.308594 4.066406 -3.839844 4.066406 -6.925781 L 4.066406 -13.527344 C 4.066406 -13.875 3.941406 -14.179688 3.6875 -14.429688 C 3.4375 -14.679688 3.136719 -14.804688 2.785156 -14.804688 C 2.433594 -14.804688 2.132812 -14.679688 1.882812 -14.429688 C 1.632812 -14.179688 1.503906 -13.875 1.503906 -13.527344 L 1.503906 -6.726562 C 1.503906 -2.132812 3.488281 0.152344 7.476562 0.152344 C 11.46875 0.152344 13.476562 -2.132812 13.476562 -6.726562 Z M 13.476562 -6.726562 " />
            </g>
        </g>
    </g>
    <g fill="#0e254e" fill-opacity="1">
        <g transform="translate(160.074526, 29.690777)">
            <g>
                <path d="M 2.710938 0 L 9.710938 0 C 10.011719 0 10.289062 -0.101562 10.539062 -0.351562 C 10.789062 -0.578125 10.914062 -0.851562 10.914062 -1.203125 C 10.914062 -1.53125 10.789062 -1.808594 10.539062 -2.058594 C 10.289062 -2.285156 10.011719 -2.410156 9.710938 -2.410156 L 4.066406 -2.410156 L 4.066406 -13.527344 C 4.066406 -13.875 3.941406 -14.179688 3.6875 -14.429688 C 3.4375 -14.679688 3.136719 -14.804688 2.785156 -14.804688 C 2.433594 -14.804688 2.132812 -14.679688 1.882812 -14.429688 C 1.632812 -14.179688 1.503906 -13.875 1.503906 -13.527344 L 1.503906 -1.203125 C 1.503906 -0.851562 1.605469 -0.578125 1.855469 -0.351562 C 2.082031 -0.101562 2.359375 0 2.710938 0 Z M 2.710938 0 " />
            </g>
        </g>
    </g>
    <g fill="#0e254e" fill-opacity="1">
        <g transform="translate(171.865485, 29.690777)">
            <g>
                <path d="M 8.230469 0.152344 C 8.832031 0.152344 9.410156 0.101562 10.011719 -0.0234375 C 10.613281 -0.152344 11.242188 -0.402344 11.894531 -0.753906 C 12.546875 -1.105469 13.097656 -1.582031 13.601562 -2.132812 C 14.101562 -2.683594 14.503906 -3.4375 14.832031 -4.390625 C 15.15625 -5.34375 15.332031 -6.425781 15.332031 -7.652344 C 15.332031 -8.933594 15.105469 -10.0625 14.679688 -11.042969 C 14.253906 -11.996094 13.675781 -12.746094 12.972656 -13.300781 C 12.269531 -13.851562 11.519531 -14.253906 10.714844 -14.527344 C 9.910156 -14.78125 9.082031 -14.929688 8.230469 -14.929688 C 7.378906 -14.929688 6.550781 -14.78125 5.746094 -14.527344 C 4.945312 -14.253906 4.164062 -13.851562 3.464844 -13.300781 C 2.761719 -12.746094 2.183594 -11.996094 1.757812 -11.042969 C 1.328125 -10.0625 1.128906 -8.933594 1.128906 -7.652344 C 1.128906 -6.425781 1.28125 -5.34375 1.605469 -4.390625 C 1.933594 -3.4375 2.332031 -2.683594 2.835938 -2.132812 C 3.335938 -1.582031 3.914062 -1.105469 4.566406 -0.753906 C 5.21875 -0.402344 5.820312 -0.152344 6.425781 -0.0234375 C 7.027344 0.101562 7.628906 0.152344 8.230469 0.152344 Z M 8.230469 -2.308594 C 7.679688 -2.308594 7.203125 -2.359375 6.75 -2.484375 C 6.296875 -2.609375 5.820312 -2.835938 5.320312 -3.1875 C 4.816406 -3.539062 4.417969 -4.066406 4.117188 -4.816406 C 3.8125 -5.570312 3.6875 -6.472656 3.6875 -7.578125 C 3.6875 -10.839844 5.195312 -12.472656 8.230469 -12.472656 C 11.242188 -12.472656 12.773438 -10.839844 12.773438 -7.578125 C 12.773438 -6.472656 12.621094 -5.570312 12.320312 -4.816406 C 12.019531 -4.066406 11.644531 -3.539062 11.140625 -3.1875 C 10.640625 -2.835938 10.164062 -2.609375 9.710938 -2.484375 C 9.257812 -2.359375 8.757812 -2.308594 8.230469 -2.308594 Z M 8.230469 -2.308594 " />
            </g>
        </g>
    </g>
    <g fill="#0e254e" fill-opacity="1">
        <g transform="translate(188.32265, 29.690777)">
            <g>
                <path d="M 4.066406 -10.4375 L 10.664062 -0.753906 C 11.015625 -0.25 11.542969 0 12.21875 0 C 12.699219 0 13.097656 -0.152344 13.449219 -0.5 C 13.800781 -0.851562 13.976562 -1.253906 13.976562 -1.757812 L 13.976562 -13.527344 C 13.976562 -13.875 13.851562 -14.179688 13.601562 -14.429688 C 13.351562 -14.679688 13.046875 -14.804688 12.699219 -14.804688 C 12.347656 -14.804688 12.046875 -14.679688 11.792969 -14.429688 C 11.542969 -14.179688 11.417969 -13.875 11.417969 -13.527344 L 11.417969 -4.191406 L 4.71875 -14.050781 C 4.339844 -14.554688 3.863281 -14.804688 3.261719 -14.804688 C 2.761719 -14.804688 2.359375 -14.628906 2.007812 -14.277344 C 1.65625 -13.925781 1.503906 -13.527344 1.503906 -13.046875 L 1.503906 -1.28125 C 1.503906 -0.929688 1.632812 -0.628906 1.882812 -0.375 C 2.132812 -0.125 2.433594 0 2.785156 0 C 3.136719 0 3.4375 -0.125 3.6875 -0.375 C 3.941406 -0.628906 4.066406 -0.929688 4.066406 -1.28125 Z M 4.066406 -10.4375 " />
            </g>
        </g>
    </g>
    <g fill="#0e254e" fill-opacity="1">
        <g transform="translate(203.801425, 29.690777)">
            <g>
                <path d="M 12.21875 -7.855469 L 9.910156 -7.855469 C 9.585938 -7.855469 9.308594 -7.730469 9.058594 -7.476562 C 8.808594 -7.226562 8.707031 -6.949219 8.707031 -6.648438 C 8.707031 -6.324219 8.808594 -6.046875 9.058594 -5.796875 C 9.308594 -5.546875 9.585938 -5.445312 9.910156 -5.445312 L 10.867188 -5.445312 L 10.867188 -2.984375 C 10.0625 -2.535156 9.160156 -2.308594 8.179688 -2.308594 C 7.753906 -2.308594 7.351562 -2.332031 6.976562 -2.410156 C 6.601562 -2.460938 6.199219 -2.609375 5.746094 -2.835938 C 5.292969 -3.0625 4.894531 -3.363281 4.566406 -3.714844 C 4.242188 -4.066406 3.964844 -4.59375 3.765625 -5.246094 C 3.539062 -5.898438 3.4375 -6.675781 3.4375 -7.578125 C 3.4375 -8.53125 3.5625 -9.335938 3.839844 -10.011719 C 4.117188 -10.691406 4.492188 -11.191406 4.992188 -11.542969 C 5.46875 -11.871094 5.972656 -12.09375 6.472656 -12.246094 C 6.976562 -12.394531 7.554688 -12.472656 8.179688 -12.472656 C 9.234375 -12.472656 10.164062 -12.269531 10.941406 -11.894531 C 11.089844 -11.792969 11.265625 -11.769531 11.441406 -11.769531 C 11.742188 -11.769531 12.019531 -11.871094 12.269531 -12.121094 C 12.523438 -12.347656 12.648438 -12.621094 12.648438 -12.949219 C 12.648438 -13.398438 12.445312 -13.75 12.046875 -13.976562 C 10.964844 -14.605469 9.6875 -14.929688 8.207031 -14.929688 C 7.328125 -14.929688 6.472656 -14.78125 5.644531 -14.527344 C 4.816406 -14.253906 4.039062 -13.851562 3.3125 -13.300781 C 2.558594 -12.746094 1.980469 -11.996094 1.53125 -11.042969 C 1.078125 -10.0625 0.878906 -8.933594 0.878906 -7.652344 C 0.878906 -6.425781 1.027344 -5.34375 1.378906 -4.390625 C 1.730469 -3.4375 2.15625 -2.683594 2.683594 -2.132812 C 3.1875 -1.582031 3.789062 -1.105469 4.464844 -0.753906 C 5.144531 -0.402344 5.796875 -0.152344 6.398438 -0.0234375 C 7 0.101562 7.628906 0.152344 8.230469 0.152344 C 8.984375 0.152344 9.8125 0.0234375 10.714844 -0.25 C 11.617188 -0.5 12.371094 -0.902344 12.972656 -1.40625 C 13.273438 -1.65625 13.425781 -2.007812 13.425781 -2.433594 L 13.425781 -6.648438 C 13.425781 -6.949219 13.300781 -7.226562 13.046875 -7.476562 C 12.796875 -7.730469 12.523438 -7.855469 12.21875 -7.855469 Z M 12.21875 -7.855469 " />
            </g>
        </g>
    </g>
    <g fill="#0e254e" fill-opacity="1">
        <g transform="translate(218.849752, 29.690777)">
            <g />
        </g>
    </g>
    <g fill="#0e254e" fill-opacity="1">
        <g transform="translate(68.716346, 43.831863)">
            <g>
                <path d="M 2.035156 -0.660156 L 2.035156 -2.398438 L 4.304688 -2.398438 C 4.589844 -2.398438 4.875 -2.4375 5.136719 -2.515625 C 5.394531 -2.59375 5.640625 -2.738281 5.886719 -2.929688 C 6.121094 -3.113281 6.316406 -3.398438 6.457031 -3.773438 C 6.601562 -4.136719 6.679688 -4.578125 6.679688 -5.097656 C 6.679688 -5.667969 6.550781 -6.148438 6.289062 -6.550781 C 6.03125 -6.953125 5.71875 -7.238281 5.367188 -7.40625 C 5.019531 -7.5625 4.65625 -7.652344 4.265625 -7.652344 L 1.375 -7.652344 C 1.191406 -7.652344 1.039062 -7.585938 0.90625 -7.457031 C 0.777344 -7.328125 0.714844 -7.171875 0.714844 -6.988281 L 0.714844 -0.660156 C 0.714844 -0.480469 0.777344 -0.324219 0.90625 -0.195312 C 1.039062 -0.0664062 1.191406 0 1.375 0 C 1.554688 0 1.710938 -0.0664062 1.839844 -0.195312 C 1.972656 -0.324219 2.035156 -0.480469 2.035156 -0.660156 Z M 2.035156 -6.40625 L 4.253906 -6.40625 C 4.566406 -6.40625 4.835938 -6.304688 5.042969 -6.109375 C 5.253906 -5.902344 5.367188 -5.5625 5.367188 -5.097656 C 5.367188 -4.125 4.992188 -3.644531 4.253906 -3.644531 L 2.035156 -3.644531 Z M 2.035156 -6.40625 " />
            </g>
        </g>
    </g>
    <g fill="#0e254e" fill-opacity="1">
        <g transform="translate(75.717923, 43.831863)">
            <g>
                <path d="M 5.292969 -0.660156 L 5.292969 -3.152344 C 5.292969 -3.851562 5.058594 -4.382812 4.617188 -4.757812 C 4.175781 -5.136719 3.554688 -5.332031 2.75 -5.332031 C 2.179688 -5.332031 1.710938 -5.265625 1.324219 -5.148438 C 1.0625 -5.058594 0.945312 -4.863281 0.945312 -4.566406 C 0.945312 -4.394531 1 -4.253906 1.101562 -4.148438 C 1.207031 -4.046875 1.347656 -3.996094 1.53125 -3.996094 L 1.621094 -3.996094 C 1.855469 -4.035156 2.074219 -4.058594 2.28125 -4.058594 C 2.917969 -4.058594 3.359375 -3.96875 3.59375 -3.8125 C 3.824219 -3.644531 3.957031 -3.410156 3.957031 -3.113281 L 3.957031 -2.917969 C 3.386719 -3.203125 2.800781 -3.347656 2.230469 -3.347656 C 1.660156 -3.347656 1.21875 -3.191406 0.90625 -2.878906 C 0.597656 -2.566406 0.453125 -2.179688 0.453125 -1.710938 C 0.453125 -1.402344 0.503906 -1.128906 0.609375 -0.894531 C 0.714844 -0.660156 0.84375 -0.492188 0.984375 -0.375 C 1.128906 -0.246094 1.285156 -0.15625 1.464844 -0.078125 C 1.648438 0 1.789062 0.0390625 1.90625 0.0507812 C 2.011719 0.078125 2.113281 0.078125 2.191406 0.078125 L 2.257812 0.078125 C 2.929688 0.078125 3.488281 -0.128906 3.929688 -0.558594 C 3.957031 -0.390625 4.035156 -0.257812 4.164062 -0.15625 C 4.292969 -0.0507812 4.449219 0 4.628906 0 C 4.8125 0 4.96875 -0.0664062 5.097656 -0.195312 C 5.226562 -0.324219 5.292969 -0.480469 5.292969 -0.660156 Z M 3.917969 -1.789062 L 3.917969 -1.570312 L 3.839844 -1.476562 C 3.785156 -1.402344 3.65625 -1.335938 3.476562 -1.285156 C 3.28125 -1.21875 3.046875 -1.191406 2.761719 -1.191406 C 2.113281 -1.191406 1.789062 -1.347656 1.789062 -1.671875 C 1.789062 -2.035156 2.113281 -2.21875 2.761719 -2.21875 C 2.996094 -2.21875 3.214844 -2.179688 3.421875 -2.101562 C 3.617188 -2.023438 3.746094 -1.957031 3.800781 -1.90625 C 3.851562 -1.855469 3.890625 -1.816406 3.917969 -1.789062 Z M 3.917969 -1.789062 " />
            </g>
        </g>
    </g>
    <g fill="#0e254e" fill-opacity="1">
        <g transform="translate(81.721127, 43.831863)">
            <g>
                <path d="M 3.347656 -4.085938 L 3.632812 -4.085938 C 3.785156 -4.085938 3.929688 -4.136719 4.046875 -4.265625 C 4.148438 -4.382812 4.214844 -4.527344 4.214844 -4.707031 C 4.214844 -4.875 4.148438 -5.019531 4.046875 -5.148438 C 3.929688 -5.265625 3.785156 -5.332031 3.632812 -5.332031 L 3.4375 -5.332031 C 2.8125 -5.304688 2.347656 -5.03125 2.035156 -4.511719 L 2.023438 -4.578125 C 1.984375 -4.757812 1.90625 -4.929688 1.800781 -5.058594 C 1.6875 -5.1875 1.542969 -5.253906 1.375 -5.253906 C 1.191406 -5.253906 1.039062 -5.1875 0.90625 -5.058594 C 0.777344 -4.929688 0.714844 -4.773438 0.714844 -4.589844 L 0.714844 -0.660156 C 0.714844 -0.480469 0.777344 -0.324219 0.90625 -0.195312 C 1.039062 -0.0664062 1.191406 0 1.375 0 C 1.554688 0 1.710938 -0.0664062 1.839844 -0.195312 C 1.972656 -0.324219 2.035156 -0.480469 2.035156 -0.660156 L 2.035156 -3.242188 L 2.179688 -3.449219 C 2.257812 -3.578125 2.414062 -3.722656 2.632812 -3.863281 C 2.839844 -4.007812 3.085938 -4.085938 3.347656 -4.085938 Z M 3.347656 -4.085938 " />
            </g>
        </g>
    </g>
    <g fill="#0e254e" fill-opacity="1">
        <g transform="translate(85.857244, 43.831863)">
            <g>
                <path d="M 5.292969 -0.660156 L 5.292969 -3.152344 C 5.292969 -3.851562 5.058594 -4.382812 4.617188 -4.757812 C 4.175781 -5.136719 3.554688 -5.332031 2.75 -5.332031 C 2.179688 -5.332031 1.710938 -5.265625 1.324219 -5.148438 C 1.0625 -5.058594 0.945312 -4.863281 0.945312 -4.566406 C 0.945312 -4.394531 1 -4.253906 1.101562 -4.148438 C 1.207031 -4.046875 1.347656 -3.996094 1.53125 -3.996094 L 1.621094 -3.996094 C 1.855469 -4.035156 2.074219 -4.058594 2.28125 -4.058594 C 2.917969 -4.058594 3.359375 -3.96875 3.59375 -3.8125 C 3.824219 -3.644531 3.957031 -3.410156 3.957031 -3.113281 L 3.957031 -2.917969 C 3.386719 -3.203125 2.800781 -3.347656 2.230469 -3.347656 C 1.660156 -3.347656 1.21875 -3.191406 0.90625 -2.878906 C 0.597656 -2.566406 0.453125 -2.179688 0.453125 -1.710938 C 0.453125 -1.402344 0.503906 -1.128906 0.609375 -0.894531 C 0.714844 -0.660156 0.84375 -0.492188 0.984375 -0.375 C 1.128906 -0.246094 1.285156 -0.15625 1.464844 -0.078125 C 1.648438 0 1.789062 0.0390625 1.90625 0.0507812 C 2.011719 0.078125 2.113281 0.078125 2.191406 0.078125 L 2.257812 0.078125 C 2.929688 0.078125 3.488281 -0.128906 3.929688 -0.558594 C 3.957031 -0.390625 4.035156 -0.257812 4.164062 -0.15625 C 4.292969 -0.0507812 4.449219 0 4.628906 0 C 4.8125 0 4.96875 -0.0664062 5.097656 -0.195312 C 5.226562 -0.324219 5.292969 -0.480469 5.292969 -0.660156 Z M 3.917969 -1.789062 L 3.917969 -1.570312 L 3.839844 -1.476562 C 3.785156 -1.402344 3.65625 -1.335938 3.476562 -1.285156 C 3.28125 -1.21875 3.046875 -1.191406 2.761719 -1.191406 C 2.113281 -1.191406 1.789062 -1.347656 1.789062 -1.671875 C 1.789062 -2.035156 2.113281 -2.21875 2.761719 -2.21875 C 2.996094 -2.21875 3.214844 -2.179688 3.421875 -2.101562 C 3.617188 -2.023438 3.746094 -1.957031 3.800781 -1.90625 C 3.851562 -1.855469 3.890625 -1.816406 3.917969 -1.789062 Z M 3.917969 -1.789062 " />
            </g>
        </g>
    </g>
    <g fill="#0e254e" fill-opacity="1">
        <g transform="translate(91.860448, 43.831863)">
            <g />
        </g>
    </g>
    <g fill="#0e254e" fill-opacity="1">
        <g transform="translate(94.440659, 43.831863)">
            <g>
                <path d="M 4.992188 -6.304688 C 5.175781 -6.304688 5.316406 -6.355469 5.445312 -6.484375 C 5.578125 -6.601562 5.640625 -6.757812 5.640625 -6.9375 C 5.640625 -7.082031 5.589844 -7.210938 5.484375 -7.328125 C 5.382812 -7.429688 5.265625 -7.507812 5.136719 -7.5625 C 4.734375 -7.664062 4.175781 -7.714844 3.476562 -7.714844 C 3.035156 -7.714844 2.660156 -7.675781 2.335938 -7.625 C 2.011719 -7.574219 1.699219 -7.46875 1.402344 -7.3125 C 1.089844 -7.160156 0.855469 -6.9375 0.699219 -6.628906 C 0.53125 -6.316406 0.453125 -5.925781 0.453125 -5.484375 C 0.453125 -5.058594 0.609375 -4.683594 0.921875 -4.371094 C 1.230469 -4.046875 1.609375 -3.800781 2.0625 -3.617188 C 2.503906 -3.4375 2.957031 -3.28125 3.398438 -3.136719 C 3.839844 -2.984375 4.226562 -2.828125 4.539062 -2.660156 C 4.851562 -2.476562 5.007812 -2.28125 5.007812 -2.074219 C 5.007812 -1.476562 4.359375 -1.191406 3.074219 -1.191406 C 2.554688 -1.191406 2.023438 -1.285156 1.453125 -1.476562 C 1.375 -1.492188 1.324219 -1.503906 1.296875 -1.503906 C 1.140625 -1.503906 1.011719 -1.441406 0.90625 -1.335938 C 0.804688 -1.21875 0.753906 -1.089844 0.753906 -0.933594 C 0.753906 -0.675781 0.855469 -0.503906 1.0625 -0.402344 C 1.765625 -0.078125 2.542969 0.078125 3.398438 0.078125 C 4.292969 0.078125 5.007812 -0.0898438 5.539062 -0.453125 C 6.054688 -0.816406 6.328125 -1.363281 6.328125 -2.089844 C 6.328125 -2.515625 6.171875 -2.890625 5.863281 -3.214844 C 5.550781 -3.539062 5.160156 -3.800781 4.71875 -3.980469 C 4.265625 -4.164062 3.8125 -4.332031 3.371094 -4.488281 C 2.929688 -4.644531 2.554688 -4.796875 2.242188 -4.980469 C 1.933594 -5.160156 1.777344 -5.355469 1.777344 -5.578125 C 1.777344 -5.769531 1.828125 -5.925781 1.945312 -6.054688 C 2.050781 -6.1875 2.21875 -6.277344 2.425781 -6.328125 C 2.632812 -6.378906 2.828125 -6.40625 2.984375 -6.417969 C 3.136719 -6.433594 3.347656 -6.445312 3.59375 -6.445312 C 3.980469 -6.445312 4.449219 -6.394531 4.992188 -6.304688 Z M 4.992188 -6.304688 " />
            </g>
        </g>
    </g>
    <g fill="#0e254e" fill-opacity="1">
        <g transform="translate(101.221816, 43.831863)">
            <g>
                <path d="M 5.292969 -0.660156 L 5.292969 -3.152344 C 5.292969 -3.851562 5.058594 -4.382812 4.617188 -4.757812 C 4.175781 -5.136719 3.554688 -5.332031 2.75 -5.332031 C 2.179688 -5.332031 1.710938 -5.265625 1.324219 -5.148438 C 1.0625 -5.058594 0.945312 -4.863281 0.945312 -4.566406 C 0.945312 -4.394531 1 -4.253906 1.101562 -4.148438 C 1.207031 -4.046875 1.347656 -3.996094 1.53125 -3.996094 L 1.621094 -3.996094 C 1.855469 -4.035156 2.074219 -4.058594 2.28125 -4.058594 C 2.917969 -4.058594 3.359375 -3.96875 3.59375 -3.8125 C 3.824219 -3.644531 3.957031 -3.410156 3.957031 -3.113281 L 3.957031 -2.917969 C 3.386719 -3.203125 2.800781 -3.347656 2.230469 -3.347656 C 1.660156 -3.347656 1.21875 -3.191406 0.90625 -2.878906 C 0.597656 -2.566406 0.453125 -2.179688 0.453125 -1.710938 C 0.453125 -1.402344 0.503906 -1.128906 0.609375 -0.894531 C 0.714844 -0.660156 0.84375 -0.492188 0.984375 -0.375 C 1.128906 -0.246094 1.285156 -0.15625 1.464844 -0.078125 C 1.648438 0 1.789062 0.0390625 1.90625 0.0507812 C 2.011719 0.078125 2.113281 0.078125 2.191406 0.078125 L 2.257812 0.078125 C 2.929688 0.078125 3.488281 -0.128906 3.929688 -0.558594 C 3.957031 -0.390625 4.035156 -0.257812 4.164062 -0.15625 C 4.292969 -0.0507812 4.449219 0 4.628906 0 C 4.8125 0 4.96875 -0.0664062 5.097656 -0.195312 C 5.226562 -0.324219 5.292969 -0.480469 5.292969 -0.660156 Z M 3.917969 -1.789062 L 3.917969 -1.570312 L 3.839844 -1.476562 C 3.785156 -1.402344 3.65625 -1.335938 3.476562 -1.285156 C 3.28125 -1.21875 3.046875 -1.191406 2.761719 -1.191406 C 2.113281 -1.191406 1.789062 -1.347656 1.789062 -1.671875 C 1.789062 -2.035156 2.113281 -2.21875 2.761719 -2.21875 C 2.996094 -2.21875 3.214844 -2.179688 3.421875 -2.101562 C 3.617188 -2.023438 3.746094 -1.957031 3.800781 -1.90625 C 3.851562 -1.855469 3.890625 -1.816406 3.917969 -1.789062 Z M 3.917969 -1.789062 " />
            </g>
        </g>
    </g>
    <g fill="#0e254e" fill-opacity="1">
        <g transform="translate(107.22502, 43.831863)">
            <g />
        </g>
    </g>
    <g fill="#0e254e" fill-opacity="1">
        <g transform="translate(109.805231, 43.831863)">
            <g>
                <path d="M 1.402344 0 L 5.019531 0 C 5.175781 0 5.316406 -0.0507812 5.445312 -0.179688 C 5.578125 -0.296875 5.640625 -0.441406 5.640625 -0.621094 C 5.640625 -0.792969 5.578125 -0.933594 5.445312 -1.0625 C 5.316406 -1.179688 5.175781 -1.246094 5.019531 -1.246094 L 2.101562 -1.246094 L 2.101562 -6.988281 C 2.101562 -7.171875 2.035156 -7.328125 1.90625 -7.457031 C 1.777344 -7.585938 1.621094 -7.652344 1.441406 -7.652344 C 1.257812 -7.652344 1.101562 -7.585938 0.972656 -7.457031 C 0.84375 -7.328125 0.777344 -7.171875 0.777344 -6.988281 L 0.777344 -0.621094 C 0.777344 -0.441406 0.828125 -0.296875 0.960938 -0.179688 C 1.078125 -0.0507812 1.21875 0 1.402344 0 Z M 1.402344 0 " />
            </g>
        </g>
    </g>
    <g fill="#0e254e" fill-opacity="1">
        <g transform="translate(115.899196, 43.831863)">
            <g>
                <path d="M 5.292969 -0.660156 L 5.292969 -3.152344 C 5.292969 -3.851562 5.058594 -4.382812 4.617188 -4.757812 C 4.175781 -5.136719 3.554688 -5.332031 2.75 -5.332031 C 2.179688 -5.332031 1.710938 -5.265625 1.324219 -5.148438 C 1.0625 -5.058594 0.945312 -4.863281 0.945312 -4.566406 C 0.945312 -4.394531 1 -4.253906 1.101562 -4.148438 C 1.207031 -4.046875 1.347656 -3.996094 1.53125 -3.996094 L 1.621094 -3.996094 C 1.855469 -4.035156 2.074219 -4.058594 2.28125 -4.058594 C 2.917969 -4.058594 3.359375 -3.96875 3.59375 -3.8125 C 3.824219 -3.644531 3.957031 -3.410156 3.957031 -3.113281 L 3.957031 -2.917969 C 3.386719 -3.203125 2.800781 -3.347656 2.230469 -3.347656 C 1.660156 -3.347656 1.21875 -3.191406 0.90625 -2.878906 C 0.597656 -2.566406 0.453125 -2.179688 0.453125 -1.710938 C 0.453125 -1.402344 0.503906 -1.128906 0.609375 -0.894531 C 0.714844 -0.660156 0.84375 -0.492188 0.984375 -0.375 C 1.128906 -0.246094 1.285156 -0.15625 1.464844 -0.078125 C 1.648438 0 1.789062 0.0390625 1.90625 0.0507812 C 2.011719 0.078125 2.113281 0.078125 2.191406 0.078125 L 2.257812 0.078125 C 2.929688 0.078125 3.488281 -0.128906 3.929688 -0.558594 C 3.957031 -0.390625 4.035156 -0.257812 4.164062 -0.15625 C 4.292969 -0.0507812 4.449219 0 4.628906 0 C 4.8125 0 4.96875 -0.0664062 5.097656 -0.195312 C 5.226562 -0.324219 5.292969 -0.480469 5.292969 -0.660156 Z M 3.917969 -1.789062 L 3.917969 -1.570312 L 3.839844 -1.476562 C 3.785156 -1.402344 3.65625 -1.335938 3.476562 -1.285156 C 3.28125 -1.21875 3.046875 -1.191406 2.761719 -1.191406 C 2.113281 -1.191406 1.789062 -1.347656 1.789062 -1.671875 C 1.789062 -2.035156 2.113281 -2.21875 2.761719 -2.21875 C 2.996094 -2.21875 3.214844 -2.179688 3.421875 -2.101562 C 3.617188 -2.023438 3.746094 -1.957031 3.800781 -1.90625 C 3.851562 -1.855469 3.890625 -1.816406 3.917969 -1.789062 Z M 3.917969 -1.789062 " />
            </g>
        </g>
    </g>
    <g fill="#0e254e" fill-opacity="1">
        <g transform="translate(121.9024, 43.831863)">
            <g>
                <path d="M 0.714844 -6.988281 L 0.714844 -0.660156 C 0.714844 -0.480469 0.777344 -0.324219 0.90625 -0.195312 C 1.039062 -0.0664062 1.191406 0 1.375 0 C 1.554688 0 1.710938 -0.0664062 1.839844 -0.195312 C 1.972656 -0.324219 2.035156 -0.480469 2.035156 -0.660156 L 2.035156 -3.242188 L 2.074219 -3.320312 C 2.101562 -3.371094 2.152344 -3.449219 2.230469 -3.527344 C 2.308594 -3.605469 2.386719 -3.695312 2.476562 -3.773438 C 2.566406 -3.851562 2.683594 -3.917969 2.839844 -3.96875 C 2.984375 -4.019531 3.136719 -4.058594 3.308594 -4.058594 C 3.539062 -4.058594 3.746094 -3.996094 3.929688 -3.863281 C 4.109375 -3.734375 4.203125 -3.515625 4.203125 -3.230469 L 4.203125 -0.660156 C 4.203125 -0.480469 4.265625 -0.324219 4.394531 -0.195312 C 4.527344 -0.0664062 4.683594 0 4.863281 0 C 5.042969 0 5.199219 -0.0664062 5.332031 -0.195312 C 5.460938 -0.324219 5.523438 -0.480469 5.523438 -0.660156 L 5.523438 -3.710938 C 5.523438 -4.148438 5.355469 -4.539062 5.03125 -4.851562 C 4.707031 -5.160156 4.320312 -5.332031 3.863281 -5.332031 C 3.085938 -5.332031 2.476562 -5.058594 2.035156 -4.511719 L 2.035156 -6.988281 C 2.035156 -7.171875 1.972656 -7.328125 1.839844 -7.457031 C 1.710938 -7.585938 1.554688 -7.652344 1.375 -7.652344 C 1.191406 -7.652344 1.039062 -7.585938 0.90625 -7.457031 C 0.777344 -7.328125 0.714844 -7.171875 0.714844 -6.988281 Z M 0.714844 -6.988281 " />
            </g>
        </g>
    </g>
    <g fill="#0e254e" fill-opacity="1">
        <g transform="translate(128.07416, 43.831863)">
            <g>
                <path d="M 5.292969 -0.660156 L 5.292969 -3.152344 C 5.292969 -3.851562 5.058594 -4.382812 4.617188 -4.757812 C 4.175781 -5.136719 3.554688 -5.332031 2.75 -5.332031 C 2.179688 -5.332031 1.710938 -5.265625 1.324219 -5.148438 C 1.0625 -5.058594 0.945312 -4.863281 0.945312 -4.566406 C 0.945312 -4.394531 1 -4.253906 1.101562 -4.148438 C 1.207031 -4.046875 1.347656 -3.996094 1.53125 -3.996094 L 1.621094 -3.996094 C 1.855469 -4.035156 2.074219 -4.058594 2.28125 -4.058594 C 2.917969 -4.058594 3.359375 -3.96875 3.59375 -3.8125 C 3.824219 -3.644531 3.957031 -3.410156 3.957031 -3.113281 L 3.957031 -2.917969 C 3.386719 -3.203125 2.800781 -3.347656 2.230469 -3.347656 C 1.660156 -3.347656 1.21875 -3.191406 0.90625 -2.878906 C 0.597656 -2.566406 0.453125 -2.179688 0.453125 -1.710938 C 0.453125 -1.402344 0.503906 -1.128906 0.609375 -0.894531 C 0.714844 -0.660156 0.84375 -0.492188 0.984375 -0.375 C 1.128906 -0.246094 1.285156 -0.15625 1.464844 -0.078125 C 1.648438 0 1.789062 0.0390625 1.90625 0.0507812 C 2.011719 0.078125 2.113281 0.078125 2.191406 0.078125 L 2.257812 0.078125 C 2.929688 0.078125 3.488281 -0.128906 3.929688 -0.558594 C 3.957031 -0.390625 4.035156 -0.257812 4.164062 -0.15625 C 4.292969 -0.0507812 4.449219 0 4.628906 0 C 4.8125 0 4.96875 -0.0664062 5.097656 -0.195312 C 5.226562 -0.324219 5.292969 -0.480469 5.292969 -0.660156 Z M 3.917969 -1.789062 L 3.917969 -1.570312 L 3.839844 -1.476562 C 3.785156 -1.402344 3.65625 -1.335938 3.476562 -1.285156 C 3.28125 -1.21875 3.046875 -1.191406 2.761719 -1.191406 C 2.113281 -1.191406 1.789062 -1.347656 1.789062 -1.671875 C 1.789062 -2.035156 2.113281 -2.21875 2.761719 -2.21875 C 2.996094 -2.21875 3.214844 -2.179688 3.421875 -2.101562 C 3.617188 -2.023438 3.746094 -1.957031 3.800781 -1.90625 C 3.851562 -1.855469 3.890625 -1.816406 3.917969 -1.789062 Z M 3.917969 -1.789062 " />
            </g>
        </g>
    </g>
    <g fill="#0e254e" fill-opacity="1">
        <g transform="translate(134.077364, 43.831863)">
            <g>
                <path d="M 1.078125 -4.058594 L 1.078125 -2.074219 C 1.078125 -1.765625 1.089844 -1.503906 1.140625 -1.269531 C 1.191406 -1.039062 1.269531 -0.816406 1.402344 -0.609375 C 1.53125 -0.390625 1.726562 -0.21875 1.984375 -0.117188 C 2.242188 0 2.582031 0.0507812 2.96875 0.0507812 L 3.617188 0.0507812 C 3.773438 0.0507812 3.902344 0 4.007812 -0.128906 C 4.097656 -0.246094 4.148438 -0.402344 4.148438 -0.582031 C 4.148438 -0.765625 4.097656 -0.921875 4.007812 -1.039062 C 3.917969 -1.152344 3.785156 -1.21875 3.617188 -1.21875 L 3.515625 -1.21875 C 3.097656 -1.21875 2.8125 -1.269531 2.660156 -1.375 C 2.488281 -1.476562 2.414062 -1.738281 2.414062 -2.140625 L 2.414062 -4.058594 L 3.65625 -4.058594 C 3.8125 -4.058594 3.929688 -4.109375 4.019531 -4.226562 C 4.097656 -4.34375 4.148438 -4.488281 4.148438 -4.65625 C 4.148438 -4.824219 4.097656 -4.96875 4.019531 -5.082031 C 3.929688 -5.1875 3.8125 -5.253906 3.65625 -5.253906 L 2.414062 -5.253906 L 2.414062 -6.820312 C 2.414062 -6.976562 2.335938 -7.054688 2.191406 -7.054688 C 2.152344 -7.054688 2.113281 -7.042969 2.074219 -7.027344 C 2.035156 -7.003906 2.011719 -6.988281 1.984375 -6.964844 C 1.957031 -6.9375 1.933594 -6.925781 1.90625 -6.898438 C 1.878906 -6.875 1.855469 -6.847656 1.855469 -6.847656 L 0.363281 -5.136719 C 0.207031 -4.941406 0.144531 -4.785156 0.144531 -4.65625 C 0.144531 -4.472656 0.179688 -4.332031 0.257812 -4.226562 C 0.335938 -4.109375 0.46875 -4.058594 0.636719 -4.058594 Z M 1.078125 -4.058594 " />
            </g>
        </g>
    </g>
    <g fill="#0e254e" fill-opacity="1">
        <g transform="translate(138.680253, 43.831863)">
            <g />
        </g>
    </g>
    <g fill="#0e254e" fill-opacity="1">
        <g transform="translate(141.260464, 43.831863)">
            <g>
                <path d="M 4.203125 -3.230469 L 4.203125 -0.660156 C 4.203125 -0.480469 4.265625 -0.324219 4.394531 -0.195312 C 4.527344 -0.0664062 4.683594 0 4.863281 0 C 5.042969 0 5.199219 -0.0664062 5.332031 -0.195312 C 5.460938 -0.324219 5.523438 -0.480469 5.523438 -0.660156 L 5.523438 -3.710938 C 5.523438 -4.148438 5.355469 -4.539062 5.03125 -4.851562 C 4.707031 -5.160156 4.320312 -5.332031 3.863281 -5.332031 C 3.085938 -5.332031 2.476562 -5.058594 2.050781 -4.527344 L 2.035156 -4.589844 C 1.996094 -4.773438 1.917969 -4.929688 1.800781 -5.058594 C 1.6875 -5.1875 1.542969 -5.253906 1.375 -5.253906 C 1.191406 -5.253906 1.039062 -5.1875 0.90625 -5.058594 C 0.777344 -4.929688 0.714844 -4.773438 0.714844 -4.589844 L 0.714844 -0.660156 C 0.714844 -0.480469 0.777344 -0.324219 0.90625 -0.195312 C 1.039062 -0.0664062 1.191406 0 1.375 0 C 1.554688 0 1.710938 -0.0664062 1.839844 -0.195312 C 1.972656 -0.324219 2.035156 -0.480469 2.035156 -0.660156 L 2.035156 -3.242188 L 2.074219 -3.320312 C 2.101562 -3.371094 2.152344 -3.449219 2.230469 -3.527344 C 2.308594 -3.605469 2.386719 -3.695312 2.476562 -3.773438 C 2.566406 -3.851562 2.683594 -3.917969 2.839844 -3.96875 C 2.984375 -4.019531 3.136719 -4.058594 3.308594 -4.058594 C 3.539062 -4.058594 3.746094 -3.996094 3.929688 -3.863281 C 4.109375 -3.734375 4.203125 -3.515625 4.203125 -3.230469 Z M 4.203125 -3.230469 " />
            </g>
        </g>
    </g>
    <g fill="#0e254e" fill-opacity="1">
        <g transform="translate(147.432224, 43.831863)">
            <g>
                <path d="M 1.828125 1.152344 C 1.765625 1.128906 1.699219 1.117188 1.621094 1.117188 C 1.441406 1.117188 1.296875 1.179688 1.191406 1.296875 C 1.078125 1.414062 1.023438 1.554688 1.023438 1.726562 C 1.023438 1.984375 1.140625 2.164062 1.375 2.269531 C 1.800781 2.476562 2.347656 2.566406 3.007812 2.566406 C 3.292969 2.566406 3.566406 2.542969 3.839844 2.476562 C 4.097656 2.425781 4.382812 2.308594 4.695312 2.140625 C 4.992188 1.984375 5.238281 1.726562 5.421875 1.363281 C 5.601562 1.011719 5.707031 0.570312 5.707031 0.0507812 L 5.707031 -4.589844 C 5.707031 -4.773438 5.640625 -4.929688 5.511719 -5.058594 C 5.382812 -5.1875 5.226562 -5.253906 5.042969 -5.253906 C 4.65625 -5.253906 4.433594 -5.070312 4.371094 -4.707031 C 3.980469 -5.121094 3.488281 -5.332031 2.867188 -5.332031 C 2.257812 -5.332031 1.726562 -5.097656 1.269531 -4.65625 C 0.804688 -4.203125 0.582031 -3.554688 0.582031 -2.710938 C 0.582031 -1.726562 0.792969 -1.023438 1.207031 -0.582031 C 1.621094 -0.144531 2.113281 0.078125 2.671875 0.078125 C 3.398438 0.078125 3.957031 -0.128906 4.34375 -0.558594 L 4.34375 0.0117188 C 4.34375 0.324219 4.292969 0.570312 4.203125 0.753906 C 4.109375 0.945312 3.980469 1.078125 3.8125 1.140625 C 3.644531 1.21875 3.5 1.257812 3.386719 1.269531 C 3.269531 1.296875 3.125 1.296875 2.945312 1.296875 C 2.542969 1.296875 2.164062 1.257812 1.828125 1.152344 Z M 4.34375 -3.203125 L 4.34375 -2.050781 L 4.253906 -1.839844 C 4.175781 -1.6875 4.046875 -1.542969 3.851562 -1.402344 C 3.65625 -1.257812 3.4375 -1.191406 3.175781 -1.191406 C 2.90625 -1.191406 2.632812 -1.308594 2.347656 -1.542969 C 2.0625 -1.777344 1.917969 -2.164062 1.917969 -2.710938 C 1.917969 -3.175781 2.0625 -3.515625 2.347656 -3.734375 C 2.632812 -3.941406 2.90625 -4.058594 3.175781 -4.058594 C 3.332031 -4.058594 3.488281 -4.019531 3.632812 -3.96875 C 3.773438 -3.902344 3.890625 -3.839844 3.96875 -3.761719 C 4.046875 -3.683594 4.109375 -3.59375 4.175781 -3.5 C 4.242188 -3.398438 4.28125 -3.332031 4.304688 -3.292969 C 4.320312 -3.253906 4.332031 -3.230469 4.34375 -3.203125 Z M 4.34375 -3.203125 " />
            </g>
        </g>
    </g>
    <g fill="#0e254e" fill-opacity="1">
        <g transform="translate(153.850337, 43.831863)">
            <g />
        </g>
    </g>
    <g fill="#0e254e" fill-opacity="1">
        <g transform="translate(156.430547, 43.831863)">
            <g>
                <path d="M 4.382812 -1.648438 C 4.707031 -1.648438 4.96875 -1.777344 5.160156 -2.0625 L 6.664062 -4.421875 L 6.664062 -0.660156 C 6.664062 -0.480469 6.730469 -0.324219 6.859375 -0.195312 C 6.988281 -0.0664062 7.144531 0 7.328125 0 C 7.507812 0 7.664062 -0.0664062 7.792969 -0.195312 C 7.925781 -0.324219 7.988281 -0.480469 7.988281 -0.660156 L 7.988281 -7.082031 C 7.988281 -7.238281 7.925781 -7.367188 7.820312 -7.484375 C 7.703125 -7.585938 7.574219 -7.652344 7.417969 -7.652344 C 7.210938 -7.652344 7.054688 -7.5625 6.9375 -7.40625 L 4.382812 -3.28125 L 1.828125 -7.40625 C 1.699219 -7.5625 1.542969 -7.652344 1.347656 -7.652344 C 1.191406 -7.652344 1.050781 -7.585938 0.945312 -7.484375 C 0.828125 -7.367188 0.777344 -7.238281 0.777344 -7.082031 L 0.777344 -0.660156 C 0.777344 -0.480469 0.84375 -0.324219 0.972656 -0.195312 C 1.101562 -0.0664062 1.257812 0 1.441406 0 C 1.621094 0 1.777344 -0.0664062 1.90625 -0.195312 C 2.035156 -0.324219 2.101562 -0.480469 2.101562 -0.660156 L 2.101562 -4.421875 L 3.605469 -2.0625 C 3.785156 -1.777344 4.046875 -1.648438 4.382812 -1.648438 Z M 4.382812 -1.648438 " />
            </g>
        </g>
    </g>
    <g fill="#0e254e" fill-opacity="1">
        <g transform="translate(165.195485, 43.831863)">
            <g>
                <path d="M 5.292969 -0.660156 L 5.292969 -3.152344 C 5.292969 -3.851562 5.058594 -4.382812 4.617188 -4.757812 C 4.175781 -5.136719 3.554688 -5.332031 2.75 -5.332031 C 2.179688 -5.332031 1.710938 -5.265625 1.324219 -5.148438 C 1.0625 -5.058594 0.945312 -4.863281 0.945312 -4.566406 C 0.945312 -4.394531 1 -4.253906 1.101562 -4.148438 C 1.207031 -4.046875 1.347656 -3.996094 1.53125 -3.996094 L 1.621094 -3.996094 C 1.855469 -4.035156 2.074219 -4.058594 2.28125 -4.058594 C 2.917969 -4.058594 3.359375 -3.96875 3.59375 -3.8125 C 3.824219 -3.644531 3.957031 -3.410156 3.957031 -3.113281 L 3.957031 -2.917969 C 3.386719 -3.203125 2.800781 -3.347656 2.230469 -3.347656 C 1.660156 -3.347656 1.21875 -3.191406 0.90625 -2.878906 C 0.597656 -2.566406 0.453125 -2.179688 0.453125 -1.710938 C 0.453125 -1.402344 0.503906 -1.128906 0.609375 -0.894531 C 0.714844 -0.660156 0.84375 -0.492188 0.984375 -0.375 C 1.128906 -0.246094 1.285156 -0.15625 1.464844 -0.078125 C 1.648438 0 1.789062 0.0390625 1.90625 0.0507812 C 2.011719 0.078125 2.113281 0.078125 2.191406 0.078125 L 2.257812 0.078125 C 2.929688 0.078125 3.488281 -0.128906 3.929688 -0.558594 C 3.957031 -0.390625 4.035156 -0.257812 4.164062 -0.15625 C 4.292969 -0.0507812 4.449219 0 4.628906 0 C 4.8125 0 4.96875 -0.0664062 5.097656 -0.195312 C 5.226562 -0.324219 5.292969 -0.480469 5.292969 -0.660156 Z M 3.917969 -1.789062 L 3.917969 -1.570312 L 3.839844 -1.476562 C 3.785156 -1.402344 3.65625 -1.335938 3.476562 -1.285156 C 3.28125 -1.21875 3.046875 -1.191406 2.761719 -1.191406 C 2.113281 -1.191406 1.789062 -1.347656 1.789062 -1.671875 C 1.789062 -2.035156 2.113281 -2.21875 2.761719 -2.21875 C 2.996094 -2.21875 3.214844 -2.179688 3.421875 -2.101562 C 3.617188 -2.023438 3.746094 -1.957031 3.800781 -1.90625 C 3.851562 -1.855469 3.890625 -1.816406 3.917969 -1.789062 Z M 3.917969 -1.789062 " />
            </g>
        </g>
    </g>
    <g fill="#0e254e" fill-opacity="1">
        <g transform="translate(171.198689, 43.831863)">
            <g>
                <path d="M 0.777344 -6.988281 L 0.777344 -0.660156 C 0.777344 -0.480469 0.84375 -0.324219 0.972656 -0.195312 C 1.101562 -0.0664062 1.257812 0 1.441406 0 C 1.621094 0 1.777344 -0.0664062 1.90625 -0.195312 C 2.035156 -0.324219 2.101562 -0.480469 2.101562 -0.660156 L 2.101562 -6.988281 C 2.101562 -7.171875 2.035156 -7.328125 1.90625 -7.457031 C 1.777344 -7.585938 1.621094 -7.652344 1.441406 -7.652344 C 1.257812 -7.652344 1.101562 -7.585938 0.972656 -7.457031 C 0.84375 -7.328125 0.777344 -7.171875 0.777344 -6.988281 Z M 0.777344 -6.988281 " />
            </g>
        </g>
    </g>
    <g fill="#0e254e" fill-opacity="1">
        <g transform="translate(174.077115, 43.831863)">
            <g>
                <path d="M 3.074219 0.078125 L 3.175781 0.078125 C 3.4375 0.078125 3.695312 0.0390625 3.96875 -0.0507812 C 4.226562 -0.128906 4.5 -0.273438 4.785156 -0.46875 C 5.058594 -0.648438 5.277344 -0.933594 5.460938 -1.324219 C 5.628906 -1.710938 5.71875 -2.164062 5.71875 -2.683594 C 5.71875 -3.539062 5.445312 -4.1875 4.902344 -4.644531 C 4.359375 -5.097656 3.773438 -5.332031 3.136719 -5.332031 C 2.476562 -5.332031 1.878906 -5.097656 1.335938 -4.644531 C 0.792969 -4.1875 0.519531 -3.539062 0.519531 -2.683594 C 0.519531 -2.257812 0.570312 -1.878906 0.699219 -1.542969 C 0.816406 -1.207031 0.972656 -0.945312 1.152344 -0.753906 C 1.335938 -0.542969 1.542969 -0.390625 1.777344 -0.257812 C 2.011719 -0.128906 2.242188 -0.0390625 2.449219 0.0117188 C 2.660156 0.0664062 2.867188 0.078125 3.074219 0.078125 Z M 3.125 -1.191406 C 2.269531 -1.191406 1.855469 -1.671875 1.855469 -2.660156 C 1.855469 -3.152344 1.972656 -3.5 2.230469 -3.722656 C 2.488281 -3.941406 2.789062 -4.058594 3.125 -4.058594 C 3.460938 -4.058594 3.746094 -3.941406 4.007812 -3.722656 C 4.253906 -3.5 4.382812 -3.152344 4.382812 -2.660156 C 4.382812 -1.671875 3.957031 -1.191406 3.125 -1.191406 Z M 3.125 -1.191406 " />
            </g>
        </g>
    </g>
    <g fill="#0e254e" fill-opacity="1">
        <g transform="translate(180.313705, 43.831863)">
            <g>
                <path d="M 0.777344 -6.988281 L 0.777344 -0.660156 C 0.777344 -0.480469 0.84375 -0.324219 0.972656 -0.195312 C 1.101562 -0.0664062 1.257812 0 1.441406 0 C 1.621094 0 1.777344 -0.0664062 1.90625 -0.195312 C 2.035156 -0.324219 2.101562 -0.480469 2.101562 -0.660156 L 2.101562 -6.988281 C 2.101562 -7.171875 2.035156 -7.328125 1.90625 -7.457031 C 1.777344 -7.585938 1.621094 -7.652344 1.441406 -7.652344 C 1.257812 -7.652344 1.101562 -7.585938 0.972656 -7.457031 C 0.84375 -7.328125 0.777344 -7.171875 0.777344 -6.988281 Z M 0.777344 -6.988281 " />
            </g>
        </g>
    </g>
    <g fill="#0e254e" fill-opacity="1">
        <g transform="translate(183.192131, 43.831863)">
            <g>
                <path d="M 3.074219 0.078125 L 3.175781 0.078125 C 3.4375 0.078125 3.695312 0.0390625 3.96875 -0.0507812 C 4.226562 -0.128906 4.5 -0.273438 4.785156 -0.46875 C 5.058594 -0.648438 5.277344 -0.933594 5.460938 -1.324219 C 5.628906 -1.710938 5.71875 -2.164062 5.71875 -2.683594 C 5.71875 -3.539062 5.445312 -4.1875 4.902344 -4.644531 C 4.359375 -5.097656 3.773438 -5.332031 3.136719 -5.332031 C 2.476562 -5.332031 1.878906 -5.097656 1.335938 -4.644531 C 0.792969 -4.1875 0.519531 -3.539062 0.519531 -2.683594 C 0.519531 -2.257812 0.570312 -1.878906 0.699219 -1.542969 C 0.816406 -1.207031 0.972656 -0.945312 1.152344 -0.753906 C 1.335938 -0.542969 1.542969 -0.390625 1.777344 -0.257812 C 2.011719 -0.128906 2.242188 -0.0390625 2.449219 0.0117188 C 2.660156 0.0664062 2.867188 0.078125 3.074219 0.078125 Z M 3.125 -1.191406 C 2.269531 -1.191406 1.855469 -1.671875 1.855469 -2.660156 C 1.855469 -3.152344 1.972656 -3.5 2.230469 -3.722656 C 2.488281 -3.941406 2.789062 -4.058594 3.125 -4.058594 C 3.460938 -4.058594 3.746094 -3.941406 4.007812 -3.722656 C 4.253906 -3.5 4.382812 -3.152344 4.382812 -2.660156 C 4.382812 -1.671875 3.957031 -1.191406 3.125 -1.191406 Z M 3.125 -1.191406 " />
            </g>
        </g>
    </g>
    <g fill="#0e254e" fill-opacity="1">
        <g transform="translate(189.428721, 43.831863)">
            <g>
                <path d="M 0.777344 -6.988281 L 0.777344 -0.660156 C 0.777344 -0.480469 0.84375 -0.324219 0.972656 -0.195312 C 1.101562 -0.0664062 1.257812 0 1.441406 0 C 1.621094 0 1.777344 -0.0664062 1.90625 -0.195312 C 2.035156 -0.324219 2.101562 -0.480469 2.101562 -0.660156 L 2.101562 -6.988281 C 2.101562 -7.171875 2.035156 -7.328125 1.90625 -7.457031 C 1.777344 -7.585938 1.621094 -7.652344 1.441406 -7.652344 C 1.257812 -7.652344 1.101562 -7.585938 0.972656 -7.457031 C 0.84375 -7.328125 0.777344 -7.171875 0.777344 -6.988281 Z M 0.777344 -6.988281 " />
            </g>
        </g>
    </g>
    <g fill="#0e254e" fill-opacity="1">
        <g transform="translate(192.307147, 43.831863)">
            <g>
                <path d="M 4.433594 -1.207031 C 4.046875 -1.152344 3.734375 -1.128906 3.515625 -1.128906 C 2.945312 -1.128906 2.542969 -1.191406 2.320312 -1.347656 C 2.089844 -1.492188 1.933594 -1.726562 1.855469 -2.0625 L 4.488281 -2.0625 C 4.71875 -2.0625 4.929688 -2.140625 5.109375 -2.308594 C 5.277344 -2.476562 5.367188 -2.683594 5.367188 -2.945312 C 5.367188 -3.644531 5.148438 -4.226562 4.71875 -4.667969 C 4.292969 -5.109375 3.683594 -5.332031 2.90625 -5.332031 C 2.125 -5.332031 1.53125 -5.070312 1.128906 -4.566406 C 0.714844 -4.058594 0.519531 -3.410156 0.519531 -2.632812 C 0.519531 -1.839844 0.738281 -1.191406 1.179688 -0.6875 C 1.621094 -0.167969 2.242188 0.078125 3.046875 0.078125 C 3.644531 0.078125 4.148438 0.0390625 4.566406 -0.0507812 C 4.695312 -0.078125 4.796875 -0.144531 4.890625 -0.246094 C 4.96875 -0.351562 5.019531 -0.480469 5.019531 -0.621094 C 5.019531 -0.777344 4.953125 -0.921875 4.851562 -1.039062 C 4.734375 -1.140625 4.589844 -1.207031 4.433594 -1.207031 Z M 4.035156 -3.242188 L 1.855469 -3.242188 C 1.90625 -3.515625 2.023438 -3.722656 2.179688 -3.851562 C 2.335938 -3.980469 2.566406 -4.058594 2.890625 -4.058594 C 3.554688 -4.058594 3.929688 -3.785156 4.035156 -3.242188 Z M 4.035156 -3.242188 " />
            </g>
        </g>
    </g>
    <g fill="#0e254e" fill-opacity="1">
        <g transform="translate(198.258487, 43.831863)">
            <g>
                <path d="M 3.800781 -6.054688 C 3.996094 -6.054688 4.1875 -6.082031 4.371094 -6.160156 C 4.472656 -6.199219 4.550781 -6.265625 4.628906 -6.355469 C 4.695312 -6.445312 4.734375 -6.550781 4.734375 -6.664062 C 4.734375 -6.796875 4.667969 -6.925781 4.566406 -7.042969 C 4.460938 -7.144531 4.332031 -7.210938 4.1875 -7.210938 C 4.164062 -7.210938 4.109375 -7.199219 4.046875 -7.199219 C 3.96875 -7.183594 3.902344 -7.183594 3.839844 -7.183594 C 3.65625 -7.183594 3.398438 -7.261719 3.085938 -7.417969 C 2.761719 -7.574219 2.503906 -7.652344 2.320312 -7.652344 C 2.164062 -7.652344 1.984375 -7.613281 1.789062 -7.535156 C 1.542969 -7.429688 1.425781 -7.261719 1.425781 -7.027344 C 1.425781 -6.886719 1.476562 -6.757812 1.59375 -6.652344 C 1.699219 -6.535156 1.828125 -6.484375 1.972656 -6.484375 C 1.996094 -6.484375 2.035156 -6.484375 2.113281 -6.496094 C 2.179688 -6.496094 2.242188 -6.511719 2.320312 -6.511719 C 2.488281 -6.511719 2.738281 -6.433594 3.046875 -6.277344 C 3.359375 -6.121094 3.617188 -6.054688 3.800781 -6.054688 Z M 4.203125 -3.230469 L 4.203125 -0.660156 C 4.203125 -0.480469 4.265625 -0.324219 4.394531 -0.195312 C 4.527344 -0.0664062 4.683594 0 4.863281 0 C 5.042969 0 5.199219 -0.0664062 5.332031 -0.195312 C 5.460938 -0.324219 5.523438 -0.480469 5.523438 -0.660156 L 5.523438 -3.710938 C 5.523438 -4.148438 5.355469 -4.539062 5.03125 -4.851562 C 4.707031 -5.160156 4.320312 -5.332031 3.863281 -5.332031 C 3.085938 -5.332031 2.476562 -5.058594 2.050781 -4.527344 L 2.035156 -4.589844 C 1.996094 -4.773438 1.917969 -4.929688 1.800781 -5.058594 C 1.6875 -5.1875 1.542969 -5.253906 1.375 -5.253906 C 1.191406 -5.253906 1.039062 -5.1875 0.90625 -5.058594 C 0.777344 -4.929688 0.714844 -4.773438 0.714844 -4.589844 L 0.714844 -0.660156 C 0.714844 -0.480469 0.777344 -0.324219 0.90625 -0.195312 C 1.039062 -0.0664062 1.191406 0 1.375 0 C 1.554688 0 1.710938 -0.0664062 1.839844 -0.195312 C 1.972656 -0.324219 2.035156 -0.480469 2.035156 -0.660156 L 2.035156 -3.242188 L 2.074219 -3.320312 C 2.101562 -3.371094 2.152344 -3.449219 2.230469 -3.527344 C 2.308594 -3.605469 2.386719 -3.695312 2.476562 -3.773438 C 2.566406 -3.851562 2.683594 -3.917969 2.839844 -3.96875 C 2.984375 -4.019531 3.136719 -4.058594 3.308594 -4.058594 C 3.539062 -4.058594 3.746094 -3.996094 3.929688 -3.863281 C 4.109375 -3.734375 4.203125 -3.515625 4.203125 -3.230469 Z M 4.203125 -3.230469 " />
            </g>
        </g>
    </g>
    <g fill="#0e254e" fill-opacity="1">
        <g transform="translate(204.430248, 43.831863)">
            <g>
                <path d="M 3.074219 0.078125 L 3.175781 0.078125 C 3.4375 0.078125 3.695312 0.0390625 3.96875 -0.0507812 C 4.226562 -0.128906 4.5 -0.273438 4.785156 -0.46875 C 5.058594 -0.648438 5.277344 -0.933594 5.460938 -1.324219 C 5.628906 -1.710938 5.71875 -2.164062 5.71875 -2.683594 C 5.71875 -3.539062 5.445312 -4.1875 4.902344 -4.644531 C 4.359375 -5.097656 3.773438 -5.332031 3.136719 -5.332031 C 2.476562 -5.332031 1.878906 -5.097656 1.335938 -4.644531 C 0.792969 -4.1875 0.519531 -3.539062 0.519531 -2.683594 C 0.519531 -2.257812 0.570312 -1.878906 0.699219 -1.542969 C 0.816406 -1.207031 0.972656 -0.945312 1.152344 -0.753906 C 1.335938 -0.542969 1.542969 -0.390625 1.777344 -0.257812 C 2.011719 -0.128906 2.242188 -0.0390625 2.449219 0.0117188 C 2.660156 0.0664062 2.867188 0.078125 3.074219 0.078125 Z M 3.125 -1.191406 C 2.269531 -1.191406 1.855469 -1.671875 1.855469 -2.660156 C 1.855469 -3.152344 1.972656 -3.5 2.230469 -3.722656 C 2.488281 -3.941406 2.789062 -4.058594 3.125 -4.058594 C 3.460938 -4.058594 3.746094 -3.941406 4.007812 -3.722656 C 4.253906 -3.5 4.382812 -3.152344 4.382812 -2.660156 C 4.382812 -1.671875 3.957031 -1.191406 3.125 -1.191406 Z M 3.125 -1.191406 " />
            </g>
        </g>
    </g>
</svg>