<svg xmlns="http://www.w3.org/2000/svg" xmlns:xlink="http://www.w3.org/1999/xlink" width="500" zoomAndPan="magnify"
    viewBox="0 0 375 374.999991" height="500" preserveAspectRatio="xMidYMid meet" version="1.0">
    <path fill="#000000"
        d="M 175.441406 73.554688 L 271.90625 73.554688 L 271.90625 170.015625 L 264.957031 170.015625 L 261.871094 151.503906 C 260.269531 141.847656 254.667969 133.183594 246.519531 127.765625 C 245.058594 126.800781 243.550781 125.953125 241.996094 125.199219 C 245.574219 121.007812 247.789062 115.636719 247.789062 109.726562 C 247.789062 96.421875 236.980469 85.609375 223.671875 85.609375 C 210.367188 85.609375 199.558594 96.421875 199.558594 109.726562 C 199.558594 115.636719 201.773438 121.007812 205.351562 125.199219 C 203.796875 125.953125 202.289062 126.800781 200.828125 127.765625 C 192.679688 133.183594 187.074219 141.847656 185.476562 151.503906 L 182.390625 170.015625 L 175.441406 170.015625 Z M 207.519531 137.800781 C 211.402344 135.207031 215.902344 133.84375 220.566406 133.84375 L 226.78125 133.84375 C 231.445312 133.84375 235.945312 135.207031 239.828125 137.800781 C 245.222656 141.378906 248.894531 147.101562 249.980469 153.484375 L 252.734375 170.015625 L 194.613281 170.015625 L 197.367188 153.484375 C 198.449219 147.101562 202.125 141.378906 207.519531 137.800781 Z M 223.671875 121.785156 C 217.03125 121.785156 211.617188 116.367188 211.617188 109.726562 C 211.617188 103.085938 217.03125 97.667969 223.671875 97.667969 C 230.316406 97.667969 235.730469 103.085938 235.730469 109.726562 C 235.730469 116.367188 230.316406 121.785156 223.671875 121.785156 Z M 283.964844 182.074219 L 283.964844 61.496094 L 163.382812 61.496094 L 163.382812 182.074219 L 283.964844 182.074219 "
        fill-opacity="1" fill-rule="nonzero" />



    <path fill="#000000"
        d="M 78.980469 206.191406 L 283.964844 206.191406 L 283.964844 194.132812 L 78.980469 194.132812 L 78.980469 206.191406 "
        fill-opacity="1" fill-rule="nonzero" />


    <path fill="#000000"
        d="M 356.191406 322.859375 L 308.078125 331.597656 L 308.078125 49.4375 C 308.078125 42.796875 302.664062 37.378906 296.019531 37.378906 L 151.328125 37.378906 L 151.328125 36.601562 L 320.113281 13.335938 C 323.738281 12.863281 327.058594 15.453125 327.460938 19.082031 L 362.292969 314.664062 C 362.316406 314.945312 362.339844 315.230469 362.339844 315.511719 C 362.339844 319.113281 359.773438 322.199219 356.191406 322.859375 Z M 296.019531 362.941406 L 66.921875 362.941406 L 66.921875 353.378906 L 138.515625 281.785156 L 155.660156 230.304688 L 283.964844 230.304688 L 283.964844 218.246094 L 150.359375 218.246094 L 93.816406 237.089844 L 66.921875 263.984375 L 66.921875 49.4375 L 91.035156 49.4375 L 91.035156 67.523438 C 91.035156 77.507812 99.136719 85.609375 109.125 85.609375 C 119.109375 85.609375 127.210938 77.507812 127.210938 67.523438 L 127.210938 49.4375 L 139.269531 49.4375 L 139.269531 73.554688 L 151.328125 73.554688 L 151.328125 49.4375 L 296.019531 49.4375 Z M 32.207031 362.941406 C 21.421875 362.941406 12.660156 354.179688 12.660156 343.394531 C 12.660156 338.167969 14.6875 333.269531 18.382812 329.570312 L 24.71875 323.234375 L 52.367188 350.882812 L 46.03125 357.21875 C 42.335938 360.917969 37.4375 362.941406 32.207031 362.941406 Z M 97.066406 250.886719 L 124.714844 278.535156 L 60.890625 342.359375 L 33.242188 314.710938 Z M 118.050781 241.726562 L 133.875 257.554688 L 130.601562 267.375 L 108.230469 245 Z M 138.136719 244.765625 L 130.835938 237.464844 L 141.789062 233.816406 Z M 103.09375 49.4375 L 115.152344 49.4375 L 115.152344 67.523438 C 115.152344 70.84375 112.445312 73.554688 109.125 73.554688 C 105.804688 73.554688 103.09375 70.84375 103.09375 67.523438 Z M 103.09375 25.320312 C 103.09375 18.679688 108.511719 13.261719 115.152344 13.261719 L 127.210938 13.261719 C 133.851562 13.261719 139.269531 18.679688 139.269531 25.320312 L 139.269531 37.378906 L 127.210938 37.378906 L 127.210938 25.320312 L 115.152344 25.320312 L 115.152344 37.378906 L 103.09375 37.378906 Z M 374.253906 313.226562 L 339.449219 17.691406 C 338.292969 7.445312 328.683594 -0.0664062 318.464844 1.371094 L 151.230469 24.449219 C 150.761719 11.566406 140.210938 1.207031 127.210938 1.207031 L 115.152344 1.207031 C 101.847656 1.207031 91.035156 12.015625 91.035156 25.320312 L 91.035156 37.378906 L 66.921875 37.378906 C 60.28125 37.378906 54.863281 42.796875 54.863281 49.4375 L 54.863281 276.039062 L 9.859375 321.046875 C 3.898438 327.027344 0.601562 334.964844 0.601562 343.394531 C 0.601562 360.824219 14.78125 375 32.207031 375 C 40.664062 375 48.597656 371.703125 54.558594 365.746094 L 55.097656 365.203125 C 56.160156 370.785156 61.058594 375 66.921875 375 L 296.019531 375 C 302.664062 375 308.078125 369.582031 308.078125 362.941406 L 308.078125 343.867188 L 358.359375 334.730469 C 367.660156 333.03125 374.398438 324.953125 374.398438 315.511719 C 374.398438 314.734375 374.351562 313.957031 374.253906 313.226562 "
        fill-opacity="1" fill-rule="nonzero" />
</svg>