<?xml version="1.0" encoding="utf-8"?>
<!-- Generator: Adobe Illustrator 26.3.1, SVG Export Plug-In . SVG Version: 6.00 Build 0)  -->
<svg version="1.1" id="Layer_1" xmlns="http://www.w3.org/2000/svg" xmlns:xlink="http://www.w3.org/1999/xlink" 
	 height="24px" viewBox="0 0 500 500" xml:space="preserve">
<style type="text/css">
	.st0{fill-rule:evenodd;clip-rule:evenodd;fill:#0E254E;}
	.st1{fill-rule:evenodd;clip-rule:evenodd;fill:#22C6FE;}
	.st2{fill:none;}
	.st3{clip-path:url(#SVGID_00000045586077814488078040000006025058047293299080_);}
	.st4{fill:#0E254E;}
	.st5{fill:#22C6FE;}
</style>
<path class="st0" d="M275.8,52.6h98.9c0,41.2,32.6,75,73.1,75v101.3c0,32.3-25.8,58.6-57.5,58.6h-97.9c17.5-18.4,17.5-47.7,0-66
	c-18-18.4-46.8-18.4-64.8,0c-3.1,2.8-6.2,5.6-9.3,8.4c-0.2-39.6-0.3-79.1-0.5-118.7C218.3,79,244.2,52.6,275.8,52.6z"/>
<path class="st1" d="M173.5,104.8h-77c0,32.3-25.3,58.1-57,58.1v78.4c0,25.3,20,45.7,44.8,45.7h60.4c-17.5-18.4-17.5-47.7,0-66
	c18-18.4,46.8-18.4,64.8,0l8.8,8.9V150C218.3,125.1,198.4,104.8,173.5,104.8L173.5,104.8z"/>
<path class="st1" d="M260.7,460.8h73.6c0-30.8,24.4-55.6,54.1-55.6v-75c0-23.8-19-43.7-42.4-43.7c-17.6,0-35.1,0-52.7,0
	c-3.2,3.1-6.5,6.3-9.7,9.4l-64.8,66l-0.5-0.5v55.1C218.3,441.4,237.3,460.8,260.7,460.8z"/>
<path class="st1" d="M3,3"/>
<path class="st0" d="M179.8,443.9h-66.3c0-27.8-21.9-50.1-49.2-50.1v-67.5c0-21.3,17.5-39.2,38.5-39.2h41.9l0,0l9.3,9.4l64.3,65.5
	v42.7C218.3,426.5,201.3,443.9,179.8,443.9L179.8,443.9z"/>
<path class="st2" d="M3,3"/>
<g>
	<g>
		<defs>
			<rect id="SVGID_1_" x="164.3" y="255.2" width="112.1" height="51.1"/>
		</defs>
		<clipPath id="SVGID_00000167365156472189383040000013482797203213604542_">
			<use xlink:href="#SVGID_1_"  style="overflow:visible;"/>
		</clipPath>
		<g style="clip-path:url(#SVGID_00000167365156472189383040000013482797203213604542_);">
			<path class="st4" d="M272.9,267.1c-1.9,3-5.8,6-10.2,6c-10.2-0.5-8.8-15.9-22.4-15.4c-6.3,0-27.3-1.5-33.1-2
				c-15.1-1-19,14.9-29.2,16.4c-4.9,0.5-8.8-2.5-10.2-5c-2.9-3.5-3.9-2.5-2.9,1.5c1,3.5,3.9,8.4,9.3,8.9c0,0-2.4,11.4-2.4,15.9
				l3.4,0.5c0.5,7.4,0,12.4,1.9,12.4c1.9,0,1.5-4,2.9-11.9c0.5,9.9,1,11.9,2.4,11.9c1.5,0,1.9-4,2.4-11.9l3.4-1
				c0-6-3.4-16.9-3.4-16.9c0.5,0,10.7-10.4,13.2-8.9c0,0,0,11.9,0,17.9c0.5,11.4,0.5,20.4,3.4,20.4c2.9,0,2.4-6,3.4-20.4
				c1.9,11.9,1.9,19.9,4.4,20.4c2.9,0,1.9-9.4,2.9-20.4c0.5-4,0.5-8.4,0.5-13.9c0-3,3.9-8.4,10.7-8.4c5.4,0,6.3,7,5.8,8.4
				c-1.5,5-2.9,10.4-2.9,16.4l4.9,1c0.5,10.9,1,16.4,2.9,16.4c1.9,0,2.4-2.5,3.4-16.4c1.9,11.4,1.9,16.4,4.4,16.4s1.9-7,2.4-17.4
				l4.4-1c0.5-6.5-2.9-19.4-2.9-19.4c4.4,3,7.3,9.4,12.2,9.9c0,0,0.5,10.4,0.5,14.4c0.5,7,0,13.4,1.9,13.4c1.5,0,1.5-5.5,2.9-13.4
				c0.5,9.4,0.5,13.4,2.4,13.4s1.9-6,2.4-13.4c0-4,0-14.9,0-14.9c3.9-2.5,5.4-5.5,6.8-9.4C277.3,265.6,275.3,263.7,272.9,267.1"/>
		</g>
	</g>
</g>
<path class="st4" d="M3,3"/>
<ellipse class="st5" cx="39.5" cy="104.8" rx="36.5" ry="37.2"/>
<ellipse class="st4" cx="64.4" cy="443.9" rx="31.7" ry="32.3"/>
<ellipse class="st4" cx="448.3" cy="52.6" rx="48.7" ry="49.6"/>
<ellipse class="st5" cx="388.8" cy="459.8" rx="36.5" ry="37.2"/>
<circle class="st4" cx="236.8" cy="247.7" r="7.5"/>
<circle class="st4" cx="205.4" cy="245.9" r="7.5"/>
<circle class="st4" cx="177.1" cy="265.2" r="5"/>
<circle class="st4" cx="262.8" cy="266.4" r="5"/>
<path class="st1" d="M291.7,285"/>
</svg>
