<svg xmlns="http://www.w3.org/2000/svg" xmlns:xlink="http://www.w3.org/1999/xlink" width="500" zoomAndPan="magnify" viewBox="0 0 375 374.999991" height="500" preserveAspectRatio="xMidYMid meet" version="1.0"><defs><clipPath id="1b7b66095e"><path d="M 0 8.90625 L 375 8.90625 L 375 365.90625 L 0 365.90625 Z M 0 8.90625 " clip-rule="nonzero"/></clipPath></defs><path fill="#000000" d="M 55.957031 143.628906 C 55.957031 144.324219 55.890625 145.007812 55.753906 145.6875 C 55.621094 146.367188 55.417969 147.023438 55.152344 147.664062 C 54.890625 148.304688 54.5625 148.910156 54.179688 149.488281 C 53.792969 150.0625 53.359375 150.59375 52.867188 151.085938 C 52.378906 151.574219 51.84375 152.011719 51.269531 152.394531 C 50.695312 152.78125 50.085938 153.105469 49.445312 153.371094 C 48.804688 153.632812 48.148438 153.835938 47.46875 153.96875 C 46.789062 154.105469 46.101562 154.171875 45.410156 154.171875 C 44.71875 154.171875 44.03125 154.105469 43.351562 153.96875 C 42.671875 153.835938 42.015625 153.632812 41.375 153.371094 C 40.734375 153.105469 40.125 152.78125 39.550781 152.394531 C 38.976562 152.011719 38.441406 151.574219 37.953125 151.085938 C 37.460938 150.59375 37.027344 150.0625 36.640625 149.488281 C 36.257812 148.910156 35.929688 148.304688 35.667969 147.664062 C 35.402344 147.023438 35.199219 146.367188 35.066406 145.6875 C 34.929688 145.007812 34.863281 144.324219 34.863281 143.628906 C 34.863281 142.9375 34.929688 142.253906 35.066406 141.574219 C 35.199219 140.894531 35.402344 140.234375 35.667969 139.597656 C 35.929688 138.957031 36.257812 138.347656 36.640625 137.773438 C 37.027344 137.199219 37.460938 136.664062 37.953125 136.175781 C 38.441406 135.6875 38.976562 135.25 39.550781 134.867188 C 40.125 134.480469 40.734375 134.15625 41.375 133.890625 C 42.015625 133.625 42.671875 133.425781 43.351562 133.292969 C 44.03125 133.15625 44.71875 133.089844 45.410156 133.089844 C 46.101562 133.089844 46.789062 133.15625 47.46875 133.292969 C 48.148438 133.425781 48.804688 133.625 49.445312 133.890625 C 50.085938 134.15625 50.695312 134.480469 51.269531 134.867188 C 51.84375 135.25 52.378906 135.6875 52.867188 136.175781 C 53.359375 136.664062 53.792969 137.199219 54.179688 137.773438 C 54.5625 138.347656 54.890625 138.957031 55.152344 139.597656 C 55.417969 140.234375 55.621094 140.894531 55.753906 141.574219 C 55.890625 142.253906 55.957031 142.9375 55.957031 143.628906 Z M 55.957031 143.628906 " fill-opacity="1" fill-rule="nonzero"/><path fill="#000000" d="M 46.289062 159.734375 L 44.238281 159.734375 C 36.035156 159.734375 29.003906 163.835938 24.902344 169.984375 C 29.589844 176.71875 37.207031 181.109375 46.289062 181.109375 C 54.492188 181.109375 62.109375 177.011719 66.796875 171.15625 C 62.402344 164.421875 55.078125 159.734375 46.289062 159.734375 Z M 46.289062 159.734375 " fill-opacity="1" fill-rule="nonzero"/><path fill="#000000" d="M 340.429688 143.628906 C 340.429688 144.324219 340.363281 145.007812 340.226562 145.6875 C 340.09375 146.367188 339.890625 147.023438 339.625 147.664062 C 339.363281 148.304688 339.035156 148.910156 338.652344 149.488281 C 338.265625 150.0625 337.832031 150.59375 337.339844 151.085938 C 336.851562 151.574219 336.316406 152.011719 335.742188 152.394531 C 335.167969 152.78125 334.558594 153.105469 333.917969 153.371094 C 333.277344 153.632812 332.621094 153.835938 331.941406 153.96875 C 331.261719 154.105469 330.574219 154.171875 329.882812 154.171875 C 329.191406 154.171875 328.503906 154.105469 327.824219 153.96875 C 327.144531 153.835938 326.488281 153.632812 325.847656 153.371094 C 325.207031 153.105469 324.597656 152.78125 324.023438 152.394531 C 323.449219 152.011719 322.914062 151.574219 322.425781 151.085938 C 321.933594 150.59375 321.5 150.0625 321.113281 149.488281 C 320.730469 148.910156 320.402344 148.304688 320.140625 147.664062 C 319.875 147.023438 319.671875 146.367188 319.539062 145.6875 C 319.402344 145.007812 319.335938 144.324219 319.335938 143.628906 C 319.335938 142.9375 319.402344 142.253906 319.539062 141.574219 C 319.671875 140.894531 319.875 140.234375 320.140625 139.597656 C 320.402344 138.957031 320.730469 138.347656 321.113281 137.773438 C 321.5 137.199219 321.933594 136.664062 322.425781 136.175781 C 322.914062 135.6875 323.449219 135.25 324.023438 134.867188 C 324.597656 134.480469 325.207031 134.15625 325.847656 133.890625 C 326.488281 133.625 327.144531 133.425781 327.824219 133.292969 C 328.503906 133.15625 329.191406 133.089844 329.882812 133.089844 C 330.574219 133.089844 331.261719 133.15625 331.941406 133.292969 C 332.621094 133.425781 333.277344 133.625 333.917969 133.890625 C 334.558594 134.15625 335.167969 134.480469 335.742188 134.867188 C 336.316406 135.25 336.851562 135.6875 337.339844 136.175781 C 337.832031 136.664062 338.265625 137.199219 338.652344 137.773438 C 339.035156 138.347656 339.363281 138.957031 339.625 139.597656 C 339.890625 140.234375 340.09375 140.894531 340.226562 141.574219 C 340.363281 142.253906 340.429688 142.9375 340.429688 143.628906 Z M 340.429688 143.628906 " fill-opacity="1" fill-rule="nonzero"/><path fill="#000000" d="M 330.761719 159.734375 L 328.710938 159.734375 C 320.507812 159.734375 313.476562 163.835938 309.375 169.984375 C 314.0625 176.71875 321.679688 181.109375 330.761719 181.109375 C 338.964844 181.109375 346.582031 177.011719 351.269531 171.15625 C 347.167969 164.421875 339.550781 159.734375 330.761719 159.734375 Z M 330.761719 159.734375 " fill-opacity="1" fill-rule="nonzero"/><g clip-path="url(#1b7b66095e)"><path fill="#000000" d="M 329.882812 111.421875 C 304.980469 111.421875 284.765625 131.625 284.765625 156.515625 C 284.765625 159.441406 285.058594 162.078125 285.644531 165.007812 L 228.515625 183.453125 C 222.363281 169.105469 209.179688 158.855469 193.359375 156.515625 L 193.359375 98.828125 C 214.746094 95.316406 231.445312 76.574219 231.445312 54.027344 C 231.445312 29.140625 211.230469 8.933594 186.328125 8.933594 C 161.425781 8.933594 141.210938 29.140625 141.210938 54.027344 C 141.210938 77.160156 159.082031 96.488281 181.933594 98.828125 L 181.933594 155.929688 C 165.527344 157.683594 151.757812 168.226562 145.3125 182.867188 L 89.941406 165.007812 C 90.527344 162.371094 90.820312 159.441406 90.820312 156.515625 C 90.527344 131.625 70.3125 111.421875 45.117188 111.421875 C 20.214844 111.421875 0 131.625 0 156.808594 C 0 181.695312 20.214844 201.902344 45.117188 201.902344 C 62.988281 201.902344 78.515625 191.359375 85.839844 176.425781 L 141.796875 194.582031 C 141.503906 196.628906 141.210938 198.972656 141.210938 201.316406 C 141.210938 214.785156 147.070312 227.082031 156.738281 235.28125 L 123.046875 281.546875 C 116.601562 278.03125 108.984375 275.691406 101.074219 275.691406 C 76.171875 275.691406 55.957031 295.894531 55.957031 320.785156 C 55.957031 345.671875 76.171875 365.875 101.074219 365.875 C 125.976562 365.875 146.191406 345.671875 146.191406 320.785156 C 146.191406 308.191406 140.917969 296.480469 132.421875 288.28125 L 166.699219 241.429688 C 172.851562 244.359375 179.589844 246.117188 186.621094 246.117188 C 194.238281 246.117188 201.5625 244.066406 207.714844 240.84375 L 242.285156 288.28125 C 233.789062 296.480469 228.515625 307.898438 228.515625 320.492188 C 228.515625 345.378906 248.730469 365.585938 273.632812 365.585938 C 298.535156 365.585938 318.75 345.378906 318.75 320.492188 C 318.75 295.601562 298.535156 275.398438 273.632812 275.398438 C 265.722656 275.398438 258.105469 277.445312 251.367188 281.253906 L 217.382812 234.109375 C 226.171875 225.910156 232.03125 214.199219 232.03125 201.023438 C 232.03125 198.972656 231.738281 196.921875 231.445312 194.871094 L 289.160156 176.132812 C 296.484375 191.359375 312.011719 201.902344 329.882812 201.902344 C 354.785156 201.902344 375 181.695312 375 156.808594 C 375 131.625 354.785156 111.421875 329.882812 111.421875 Z M 45.117188 190.1875 C 26.660156 190.1875 11.71875 174.960938 11.71875 156.808594 C 11.71875 138.652344 26.660156 123.132812 45.117188 123.132812 C 63.574219 123.132812 78.515625 138.066406 78.515625 156.515625 C 78.515625 174.960938 63.574219 190.1875 45.117188 190.1875 Z M 134.472656 321.078125 C 134.472656 339.523438 119.53125 354.457031 101.074219 354.457031 C 82.617188 354.457031 67.675781 339.523438 67.675781 321.078125 C 67.675781 302.628906 82.617188 287.695312 101.074219 287.695312 C 119.238281 287.402344 134.472656 302.628906 134.472656 321.078125 Z M 307.324219 321.078125 C 307.324219 339.523438 292.382812 354.457031 273.925781 354.457031 C 255.46875 354.457031 240.527344 339.523438 240.527344 321.078125 C 240.527344 302.628906 255.46875 287.695312 273.925781 287.695312 C 292.382812 287.402344 307.324219 302.628906 307.324219 321.078125 Z M 152.929688 54.027344 C 152.929688 35.582031 167.871094 20.648438 186.328125 20.648438 C 204.785156 20.648438 219.726562 35.582031 219.726562 54.027344 C 219.726562 72.476562 204.785156 87.410156 186.328125 87.410156 C 167.871094 87.703125 152.929688 72.476562 152.929688 54.027344 Z M 186.621094 234.695312 C 168.164062 234.695312 153.222656 219.761719 153.222656 201.316406 C 153.222656 182.867188 168.164062 167.933594 186.621094 167.933594 C 205.078125 167.933594 220.019531 182.867188 220.019531 201.316406 C 220.019531 219.761719 205.078125 234.695312 186.621094 234.695312 Z M 329.882812 190.1875 C 311.425781 190.1875 296.484375 175.253906 296.484375 156.808594 C 296.484375 138.359375 311.425781 123.132812 329.882812 123.132812 C 348.339844 123.132812 363.28125 138.066406 363.28125 156.515625 C 363.28125 174.960938 348.339844 190.1875 329.882812 190.1875 Z M 329.882812 190.1875 " fill-opacity="1" fill-rule="nonzero"/></g><path fill="#000000" d="M 196.875 41.144531 C 196.875 41.835938 196.808594 42.523438 196.671875 43.203125 C 196.539062 43.878906 196.335938 44.539062 196.070312 45.179688 C 195.808594 45.820312 195.480469 46.425781 195.097656 47 C 194.710938 47.578125 194.277344 48.109375 193.785156 48.597656 C 193.296875 49.089844 192.761719 49.527344 192.1875 49.910156 C 191.613281 50.292969 191.003906 50.621094 190.363281 50.882812 C 189.722656 51.148438 189.066406 51.347656 188.386719 51.484375 C 187.707031 51.617188 187.019531 51.6875 186.328125 51.6875 C 185.636719 51.6875 184.949219 51.617188 184.269531 51.484375 C 183.589844 51.347656 182.933594 51.148438 182.292969 50.882812 C 181.652344 50.621094 181.042969 50.292969 180.46875 49.910156 C 179.894531 49.527344 179.359375 49.089844 178.871094 48.597656 C 178.378906 48.109375 177.945312 47.578125 177.558594 47 C 177.175781 46.425781 176.847656 45.820312 176.585938 45.179688 C 176.320312 44.539062 176.117188 43.878906 175.984375 43.203125 C 175.847656 42.523438 175.78125 41.835938 175.78125 41.144531 C 175.78125 40.453125 175.847656 39.765625 175.984375 39.089844 C 176.117188 38.410156 176.320312 37.75 176.585938 37.109375 C 176.847656 36.472656 177.175781 35.863281 177.558594 35.289062 C 177.945312 34.714844 178.378906 34.179688 178.871094 33.691406 C 179.359375 33.203125 179.894531 32.765625 180.46875 32.378906 C 181.042969 31.996094 181.652344 31.671875 182.292969 31.40625 C 182.933594 31.140625 183.589844 30.941406 184.269531 30.804688 C 184.949219 30.671875 185.636719 30.605469 186.328125 30.605469 C 187.019531 30.605469 187.707031 30.671875 188.386719 30.804688 C 189.066406 30.941406 189.722656 31.140625 190.363281 31.40625 C 191.003906 31.671875 191.613281 31.996094 192.1875 32.378906 C 192.761719 32.765625 193.296875 33.203125 193.785156 33.691406 C 194.277344 34.179688 194.710938 34.714844 195.097656 35.289062 C 195.480469 35.863281 195.808594 36.472656 196.070312 37.109375 C 196.335938 37.75 196.539062 38.410156 196.671875 39.089844 C 196.808594 39.765625 196.875 40.453125 196.875 41.144531 Z M 196.875 41.144531 " fill-opacity="1" fill-rule="nonzero"/><path fill="#000000" d="M 207.421875 68.667969 C 203.613281 61.933594 195.996094 57.25 187.207031 57.25 L 185.15625 57.25 C 176.953125 57.25 169.921875 61.347656 165.820312 67.5 C 170.507812 74.234375 178.125 78.625 187.207031 78.625 C 195.410156 78.625 202.734375 74.820312 207.421875 68.667969 Z M 207.421875 68.667969 " fill-opacity="1" fill-rule="nonzero"/><path fill="#000000" d="M 284.472656 307.898438 C 284.472656 308.589844 284.40625 309.277344 284.269531 309.957031 C 284.136719 310.636719 283.933594 311.292969 283.667969 311.933594 C 283.40625 312.574219 283.078125 313.179688 282.695312 313.757812 C 282.308594 314.332031 281.875 314.863281 281.382812 315.351562 C 280.894531 315.84375 280.359375 316.28125 279.785156 316.664062 C 279.210938 317.050781 278.601562 317.375 277.960938 317.636719 C 277.320312 317.902344 276.664062 318.101562 275.984375 318.238281 C 275.304688 318.375 274.617188 318.441406 273.925781 318.441406 C 273.234375 318.441406 272.546875 318.375 271.867188 318.238281 C 271.1875 318.101562 270.53125 317.902344 269.890625 317.636719 C 269.25 317.375 268.640625 317.050781 268.066406 316.664062 C 267.492188 316.28125 266.957031 315.84375 266.46875 315.351562 C 265.976562 314.863281 265.542969 314.332031 265.15625 313.757812 C 264.773438 313.179688 264.445312 312.574219 264.183594 311.933594 C 263.917969 311.292969 263.714844 310.636719 263.582031 309.957031 C 263.445312 309.277344 263.378906 308.589844 263.378906 307.898438 C 263.378906 307.207031 263.445312 306.523438 263.582031 305.84375 C 263.714844 305.164062 263.917969 304.503906 264.183594 303.867188 C 264.445312 303.226562 264.773438 302.617188 265.15625 302.042969 C 265.542969 301.46875 265.976562 300.933594 266.46875 300.445312 C 266.957031 299.957031 267.492188 299.519531 268.066406 299.132812 C 268.640625 298.75 269.25 298.425781 269.890625 298.160156 C 270.53125 297.894531 271.1875 297.695312 271.867188 297.5625 C 272.546875 297.425781 273.234375 297.359375 273.925781 297.359375 C 274.617188 297.359375 275.304688 297.425781 275.984375 297.5625 C 276.664062 297.695312 277.320312 297.894531 277.960938 298.160156 C 278.601562 298.425781 279.210938 298.75 279.785156 299.132812 C 280.359375 299.519531 280.894531 299.957031 281.382812 300.445312 C 281.875 300.933594 282.308594 301.46875 282.695312 302.042969 C 283.078125 302.617188 283.40625 303.226562 283.667969 303.867188 C 283.933594 304.503906 284.136719 305.164062 284.269531 305.84375 C 284.40625 306.523438 284.472656 307.207031 284.472656 307.898438 Z M 284.472656 307.898438 " fill-opacity="1" fill-rule="nonzero"/><path fill="#000000" d="M 274.511719 345.378906 C 282.714844 345.378906 290.332031 341.28125 295.019531 335.425781 C 290.917969 328.6875 283.59375 324.003906 274.804688 324.003906 L 272.753906 324.003906 C 264.550781 324.003906 257.519531 328.105469 253.417969 334.253906 C 258.105469 340.988281 265.722656 345.378906 274.511719 345.378906 Z M 274.511719 345.378906 " fill-opacity="1" fill-rule="nonzero"/><path fill="#000000" d="M 111.621094 307.898438 C 111.621094 308.589844 111.554688 309.277344 111.417969 309.957031 C 111.285156 310.636719 111.082031 311.292969 110.816406 311.933594 C 110.554688 312.574219 110.226562 313.179688 109.84375 313.757812 C 109.457031 314.332031 109.023438 314.863281 108.53125 315.351562 C 108.042969 315.84375 107.507812 316.28125 106.933594 316.664062 C 106.359375 317.050781 105.75 317.375 105.109375 317.636719 C 104.46875 317.902344 103.8125 318.101562 103.132812 318.238281 C 102.453125 318.375 101.765625 318.441406 101.074219 318.441406 C 100.382812 318.441406 99.695312 318.375 99.015625 318.238281 C 98.335938 318.101562 97.679688 317.902344 97.039062 317.636719 C 96.398438 317.375 95.789062 317.050781 95.214844 316.664062 C 94.640625 316.28125 94.105469 315.84375 93.617188 315.351562 C 93.125 314.863281 92.691406 314.332031 92.304688 313.757812 C 91.921875 313.179688 91.59375 312.574219 91.332031 311.933594 C 91.066406 311.292969 90.863281 310.636719 90.730469 309.957031 C 90.59375 309.277344 90.527344 308.589844 90.527344 307.898438 C 90.527344 307.207031 90.59375 306.523438 90.730469 305.84375 C 90.863281 305.164062 91.066406 304.503906 91.332031 303.867188 C 91.59375 303.226562 91.921875 302.617188 92.304688 302.042969 C 92.691406 301.46875 93.125 300.933594 93.617188 300.445312 C 94.105469 299.957031 94.640625 299.519531 95.214844 299.132812 C 95.789062 298.75 96.398438 298.425781 97.039062 298.160156 C 97.679688 297.894531 98.335938 297.695312 99.015625 297.5625 C 99.695312 297.425781 100.382812 297.359375 101.074219 297.359375 C 101.765625 297.359375 102.453125 297.425781 103.132812 297.5625 C 103.8125 297.695312 104.46875 297.894531 105.109375 298.160156 C 105.75 298.425781 106.359375 298.75 106.933594 299.132812 C 107.507812 299.519531 108.042969 299.957031 108.53125 300.445312 C 109.023438 300.933594 109.457031 301.46875 109.84375 302.042969 C 110.226562 302.617188 110.554688 303.226562 110.816406 303.867188 C 111.082031 304.503906 111.285156 305.164062 111.417969 305.84375 C 111.554688 306.523438 111.621094 307.207031 111.621094 307.898438 Z M 111.621094 307.898438 " fill-opacity="1" fill-rule="nonzero"/><path fill="#000000" d="M 101.953125 324.003906 L 99.902344 324.003906 C 91.699219 324.003906 84.667969 328.105469 80.566406 334.253906 C 85.253906 340.988281 92.871094 345.378906 101.953125 345.378906 C 110.15625 345.378906 117.773438 341.28125 122.460938 335.425781 C 118.066406 328.6875 110.742188 324.003906 101.953125 324.003906 Z M 101.953125 324.003906 " fill-opacity="1" fill-rule="nonzero"/><path fill="#000000" d="M 197.167969 188.136719 C 197.167969 188.832031 197.101562 189.515625 196.964844 190.195312 C 196.832031 190.875 196.628906 191.53125 196.363281 192.171875 C 196.101562 192.8125 195.773438 193.417969 195.390625 193.996094 C 195.003906 194.570312 194.570312 195.101562 194.078125 195.59375 C 193.589844 196.082031 193.054688 196.519531 192.480469 196.902344 C 191.90625 197.289062 191.296875 197.613281 190.65625 197.878906 C 190.015625 198.140625 189.359375 198.34375 188.679688 198.476562 C 188 198.613281 187.3125 198.679688 186.621094 198.679688 C 185.929688 198.679688 185.242188 198.613281 184.5625 198.476562 C 183.882812 198.34375 183.226562 198.140625 182.585938 197.878906 C 181.945312 197.613281 181.335938 197.289062 180.761719 196.902344 C 180.1875 196.519531 179.652344 196.082031 179.164062 195.59375 C 178.671875 195.101562 178.238281 194.570312 177.851562 193.996094 C 177.46875 193.417969 177.140625 192.8125 176.878906 192.171875 C 176.613281 191.53125 176.410156 190.875 176.277344 190.195312 C 176.140625 189.515625 176.074219 188.832031 176.074219 188.136719 C 176.074219 187.445312 176.140625 186.761719 176.277344 186.082031 C 176.410156 185.402344 176.613281 184.742188 176.878906 184.105469 C 177.140625 183.464844 177.46875 182.855469 177.851562 182.28125 C 178.238281 181.707031 178.671875 181.171875 179.164062 180.683594 C 179.652344 180.195312 180.1875 179.757812 180.761719 179.375 C 181.335938 178.988281 181.945312 178.664062 182.585938 178.398438 C 183.226562 178.132812 183.882812 177.933594 184.5625 177.800781 C 185.242188 177.664062 185.929688 177.597656 186.621094 177.597656 C 187.3125 177.597656 188 177.664062 188.679688 177.800781 C 189.359375 177.933594 190.015625 178.132812 190.65625 178.398438 C 191.296875 178.664062 191.90625 178.988281 192.480469 179.375 C 193.054688 179.757812 193.589844 180.195312 194.078125 180.683594 C 194.570312 181.171875 195.003906 181.707031 195.390625 182.28125 C 195.773438 182.855469 196.101562 183.464844 196.363281 184.105469 C 196.628906 184.742188 196.832031 185.402344 196.964844 186.082031 C 197.101562 186.761719 197.167969 187.445312 197.167969 188.136719 Z M 197.167969 188.136719 " fill-opacity="1" fill-rule="nonzero"/><path fill="#000000" d="M 187.792969 204.242188 L 185.742188 204.242188 C 177.539062 204.242188 170.507812 208.34375 166.40625 214.492188 C 171.09375 221.226562 178.710938 225.617188 187.792969 225.617188 C 195.996094 225.617188 203.613281 221.519531 208.300781 215.664062 C 203.90625 208.929688 196.289062 204.242188 187.792969 204.242188 Z M 187.792969 204.242188 " fill-opacity="1" fill-rule="nonzero"/></svg>