<svg xmlns="http://www.w3.org/2000/svg" xmlns:xlink="http://www.w3.org/1999/xlink" width="500" zoomAndPan="magnify"
    viewBox="0 0 375 374.999991" height="500" preserveAspectRatio="xMidYMid meet" version="1.0">
    <path fill="#0D254F"
        d="M 187.5 0.0742188 C 84.152344 0.0742188 0.0703125 84.152344 0.0703125 187.503906 C 0.0703125 290.851562 84.152344 374.925781 187.5 374.925781 C 290.847656 374.925781 374.921875 290.851562 374.921875 187.503906 C 374.921875 84.152344 290.847656 0.0742188 187.5 0.0742188 Z M 307.851562 115.167969 L 133.972656 289.042969 C 130.730469 292.285156 126.476562 293.90625 122.230469 293.90625 C 117.976562 293.90625 113.722656 292.285156 110.484375 289.042969 L 57.78125 236.332031 C 51.292969 229.847656 51.292969 219.332031 57.78125 212.847656 C 64.261719 206.355469 74.785156 206.355469 81.265625 212.847656 L 122.230469 253.8125 L 284.363281 91.679688 C 290.847656 85.195312 301.371094 85.195312 307.851562 91.679688 C 314.339844 98.164062 314.339844 108.683594 307.851562 115.167969 Z M 307.851562 115.167969 "
        fill-opacity="1" fill-rule="nonzero" />
</svg>